<svg width="510" height="521" viewBox="0 0 510 521" fill="none" xmlns="http://www.w3.org/2000/svg">
<g clip-path="url(#clip0_1_80)">
<path d="M226.481 0H228.23L233.762 18.4775H232.094L230.782 14.2134H223.829L222.577 18.4516H220.889L226.481 0ZM230.236 12.314L227.316 2.58426L224.495 12.3398L230.236 12.314Z" fill="#E1DDDC"/>
<path d="M241.888 19.6145H243.527C243.688 20.4033 244.061 21.0906 244.579 21.5509C245.097 22.0111 245.725 22.2136 246.348 22.1212C248.474 22.1212 249.507 20.2218 249.507 17.6117V16.3196C249.119 16.9673 248.617 17.4831 248.042 17.8229C247.468 18.1627 246.839 18.3164 246.209 18.2707C245.581 18.2478 244.962 18.0611 244.39 17.7217C243.818 17.3822 243.304 16.8969 242.879 16.2944C242.454 15.692 242.126 14.9847 241.915 14.2144C241.704 13.4441 241.613 12.6265 241.65 11.81C241.613 10.9936 241.704 10.176 241.915 9.40569C242.126 8.6354 242.454 7.92808 242.879 7.32563C243.304 6.72317 243.818 6.23784 244.39 5.89838C244.962 5.55892 245.581 5.37223 246.209 5.34937C246.846 5.3059 247.483 5.46287 248.064 5.807C248.645 6.15113 249.153 6.67228 249.547 7.32633V5.59488H251.007V17.4566C251.007 21.333 249.328 23.9173 246.348 23.9173C243.855 23.9044 242.216 21.9662 241.888 19.6145ZM243.209 11.7583C243.159 12.3402 243.204 12.9292 243.341 13.4869C243.478 14.0446 243.704 14.5585 244.004 14.9949C244.304 15.4313 244.671 15.7804 245.082 16.0194C245.493 16.2585 245.938 16.382 246.388 16.382C246.838 16.382 247.283 16.2585 247.694 16.0194C248.105 15.7804 248.472 15.4313 248.772 14.9949C249.072 14.5585 249.298 14.0446 249.435 13.4869C249.572 12.9292 249.617 12.3402 249.566 11.7583C249.606 11.1742 249.553 10.5856 249.41 10.0295C249.266 9.47341 249.037 8.96168 248.735 8.52632C248.433 8.09096 248.065 7.74133 247.654 7.49928C247.243 7.25724 246.799 7.12798 246.348 7.11959C244.56 7.11959 243.209 9.04487 243.209 11.7583Z" fill="#E1DDDC"/>
<path d="M259.867 6.46064V8.51513C259.622 8.16779 259.324 7.88989 258.993 7.69871C258.661 7.50754 258.303 7.40718 257.94 7.40389C256.748 7.40389 255.735 8.46344 255.735 11.2803V18.5291H254.235V5.60783H255.695V7.06794C255.923 6.54858 256.255 6.1193 256.656 5.82579C257.056 5.53227 257.511 5.3855 257.97 5.40109C258.327 5.38598 258.682 5.47307 259.009 5.65617C259.337 5.83927 259.63 6.11391 259.867 6.46064Z" fill="#E1DDDC"/>
<path d="M261.328 12.0426C261.328 10.3085 261.857 8.64553 262.8 7.41938C263.742 6.19324 265.021 5.50439 266.354 5.50439C267.687 5.50439 268.965 6.19324 269.908 7.41938C270.851 8.64553 271.38 10.3085 271.38 12.0426C271.38 13.7766 270.851 15.4396 269.908 16.6658C268.965 17.8919 267.687 18.5808 266.354 18.5808C265.021 18.5808 263.742 17.8919 262.8 16.6658C261.857 15.4396 261.328 13.7766 261.328 12.0426ZM262.867 12.0426C262.815 12.6771 262.866 13.3188 263.017 13.926C263.168 14.5332 263.415 15.0922 263.743 15.5669C264.071 16.0415 264.472 16.4211 264.92 16.6809C265.368 16.9408 265.853 17.075 266.344 17.075C266.835 17.075 267.32 16.9408 267.768 16.6809C268.216 16.4211 268.617 16.0415 268.945 15.5669C269.273 15.0922 269.52 14.5332 269.671 13.926C269.822 13.3188 269.873 12.6771 269.821 12.0426C269.873 11.4081 269.822 10.7664 269.671 10.1592C269.52 9.55199 269.273 8.99291 268.945 8.51827C268.617 8.04363 268.216 7.66406 267.768 7.40423C267.32 7.1444 266.835 7.01011 266.344 7.01011C265.853 7.01011 265.368 7.1444 264.92 7.40423C264.472 7.66406 264.071 8.04363 263.743 8.51827C263.415 8.99291 263.168 9.55199 263.017 10.1592C262.866 10.7664 262.815 11.4081 262.867 12.0426Z" fill="#E1DDDC"/>
<path d="M274.42 5.59495L276.744 16.3713L279.128 5.59495H281.115L283.439 16.3713L285.774 5.59495H287.413L284.433 18.5163H282.575L280.122 7.83034L277.688 18.5033H275.801L272.82 5.58203L274.42 5.59495Z" fill="#E1DDDC"/>
<path d="M289.151 1.44715C289.151 1.05648 289.27 0.681808 289.483 0.405561C289.695 0.129315 289.983 -0.0258789 290.283 -0.0258789C290.584 -0.0258789 290.872 0.129315 291.084 0.405561C291.297 0.681808 291.416 1.05648 291.416 1.44715C291.416 1.83782 291.297 2.21249 291.084 2.48874C290.872 2.76499 290.584 2.92018 290.283 2.92018C289.983 2.92018 289.695 2.76499 289.483 2.48874C289.27 2.21249 289.151 1.83782 289.151 1.44715ZM291.048 18.5033H289.548V5.58197H291.048V18.5033Z" fill="#E1DDDC"/>
<path d="M294.297 5.59499H295.757V7.09386C296.14 6.48853 296.628 6.00847 297.18 5.6921C297.732 5.37573 298.333 5.23185 298.935 5.27195C301.409 5.27195 302.849 7.32644 302.849 10.9961V18.5034H301.349V10.8281C301.349 8.41183 300.356 7.09386 298.796 7.09386C296.81 7.09386 295.816 9.07082 295.816 12.1202V18.5034H294.316L294.297 5.59499Z" fill="#E1DDDC"/>
<path d="M305.65 19.6144H307.289C307.468 20.9841 308.481 22.1212 310.12 22.1212C312.256 22.1212 313.289 20.2217 313.289 17.6116V16.3195C312.897 16.9633 312.392 17.4762 311.817 17.8155C311.241 18.1548 310.612 18.3108 309.981 18.2706C309.353 18.2478 308.734 18.0611 308.162 17.7216C307.59 17.3822 307.077 16.8968 306.651 16.2944C306.226 15.6919 305.898 14.9846 305.687 14.2143C305.476 13.444 305.386 12.6264 305.422 11.81C305.386 10.9935 305.476 10.1759 305.687 9.40563C305.898 8.63535 306.226 7.92803 306.651 7.32557C307.077 6.72312 307.59 6.23779 308.162 5.89832C308.734 5.55886 309.353 5.37217 309.981 5.34932C310.62 5.31019 311.256 5.46903 311.838 5.81276C312.42 6.15649 312.931 6.67525 313.329 7.32628V5.59483H314.789V17.4566C314.789 21.333 313.1 23.9172 310.12 23.9172C307.607 23.9043 305.948 21.9661 305.65 19.6144ZM306.942 11.7583C306.899 12.3358 306.949 12.9186 307.089 13.4693C307.23 14.02 307.457 14.5264 307.757 14.956C308.057 15.3856 308.422 15.7289 308.83 15.9638C309.238 16.1987 309.679 16.3201 310.125 16.3201C310.571 16.3201 311.013 16.1987 311.42 15.9638C311.828 15.7289 312.194 15.3856 312.494 14.956C312.793 14.5264 313.021 14.02 313.161 13.4693C313.302 12.9186 313.352 12.3358 313.309 11.7583C313.365 11.171 313.325 10.5749 313.191 10.0093C313.057 9.44382 312.832 8.92188 312.531 8.47816C312.23 8.03445 311.86 7.6791 311.445 7.43571C311.03 7.19232 310.58 7.06644 310.125 7.06644C309.67 7.06644 309.221 7.19232 308.806 7.43571C308.391 7.6791 308.021 8.03445 307.72 8.47816C307.419 8.92188 307.194 9.44382 307.06 10.0093C306.925 10.5749 306.885 11.171 306.942 11.7583Z" fill="#E1DDDC"/>
<path d="M231.239 55.7036C229.561 55.7036 228.438 54.7087 228.438 51.8272V44.5267H226.451V42.7436H228.438V39.8363L229.938 37.9885V42.7436H232.66V44.5267H229.938V51.5688C229.938 53.1452 230.286 53.9205 231.438 53.9205C231.865 53.927 232.286 53.789 232.66 53.5199V55.2902C232.225 55.5963 231.733 55.7395 231.239 55.7036Z" fill="#E1DDDC"/>
<path d="M234.17 49.1913C234.203 47.9084 234.526 46.6666 235.098 45.6207C235.67 44.5748 236.466 43.771 237.387 43.3097C238.307 42.8483 239.312 42.7498 240.276 43.0263C241.24 43.3029 242.119 43.9423 242.806 44.8648C243.492 45.7873 243.954 46.9522 244.135 48.2141C244.315 49.476 244.206 50.7792 243.821 51.9612C243.436 53.1431 242.793 54.1515 241.97 54.8607C241.148 55.5699 240.183 55.9484 239.196 55.9492C238.523 55.9443 237.857 55.7646 237.238 55.4205C236.618 55.0765 236.058 54.575 235.59 53.9455C235.122 53.316 234.755 52.5712 234.511 51.7548C234.267 50.9384 234.151 50.0669 234.17 49.1913ZM235.709 49.1913C235.657 49.8258 235.708 50.4675 235.859 51.0747C236.01 51.6819 236.257 52.241 236.585 52.7156C236.913 53.1903 237.314 53.5698 237.762 53.8297C238.21 54.0895 238.695 54.2238 239.186 54.2238C239.677 54.2238 240.162 54.0895 240.61 53.8297C241.058 53.5698 241.459 53.1903 241.787 52.7156C242.115 52.241 242.362 51.6819 242.513 51.0747C242.664 50.4675 242.715 49.8258 242.663 49.1913C242.715 48.5568 242.664 47.9151 242.513 47.3079C242.362 46.7007 242.115 46.1417 241.787 45.667C241.459 45.1924 241.058 44.8128 240.61 44.553C240.162 44.2931 239.677 44.1589 239.186 44.1589C238.695 44.1589 238.21 44.2931 237.762 44.553C237.314 44.8128 236.913 45.1924 236.585 45.667C236.257 46.1417 236.01 46.7007 235.859 47.3079C235.708 47.9151 235.657 48.5568 235.709 49.1913Z" fill="#E1DDDC"/>
<path d="M246.348 50.4576V48.4031H251.782V50.4576H246.348Z" fill="#E1DDDC"/>
<path d="M253.947 49.1914C253.947 45.4571 255.874 42.4206 258.665 42.4206C259.305 42.4013 259.939 42.5688 260.522 42.911C261.105 43.2532 261.621 43.7612 262.033 44.3976V37.1746H263.533V55.652H262.073V53.9464C261.656 54.5908 261.134 55.1053 260.544 55.452C259.954 55.7986 259.312 55.9686 258.665 55.9492C255.874 55.9492 253.947 52.9773 253.947 49.1914ZM255.487 49.1914C255.487 51.9695 256.719 54.1273 258.745 54.1273C260.771 54.1273 262.073 51.9695 262.073 49.1914C262.073 46.4133 260.801 44.2684 258.745 44.2684C256.689 44.2684 255.487 46.4262 255.487 49.1914Z" fill="#E1DDDC"/>
<path d="M266.215 49.1913C266.248 47.9084 266.571 46.6666 267.143 45.6207C267.715 44.5748 268.511 43.771 269.432 43.3097C270.353 42.8483 271.357 42.7498 272.321 43.0263C273.285 43.3029 274.164 43.9423 274.851 44.8648C275.537 45.7873 275.999 46.9522 276.18 48.2141C276.36 49.476 276.251 50.7792 275.866 51.9612C275.482 53.1431 274.838 54.1515 274.015 54.8607C273.193 55.5699 272.228 55.9484 271.241 55.9492C270.568 55.9443 269.902 55.7646 269.283 55.4205C268.664 55.0765 268.103 54.575 267.635 53.9455C267.167 53.316 266.8 52.5712 266.556 51.7548C266.312 50.9384 266.196 50.0669 266.215 49.1913ZM267.754 49.1913C267.702 49.8258 267.753 50.4675 267.904 51.0747C268.055 51.6819 268.303 52.241 268.63 52.7156C268.958 53.1903 269.359 53.5698 269.807 53.8297C270.256 54.0895 270.741 54.2238 271.231 54.2238C271.722 54.2238 272.207 54.0895 272.655 53.8297C273.103 53.5698 273.504 53.1903 273.832 52.7156C274.16 52.241 274.407 51.6819 274.558 51.0747C274.709 50.4675 274.76 49.8258 274.708 49.1913C274.76 48.5568 274.709 47.9151 274.558 47.3079C274.407 46.7007 274.16 46.1417 273.832 45.667C273.504 45.1924 273.103 44.8128 272.655 44.553C272.207 44.2931 271.722 44.1589 271.231 44.1589C270.741 44.1589 270.256 44.2931 269.807 44.553C269.359 44.8128 268.958 45.1924 268.63 45.667C268.303 46.1417 268.055 46.7007 267.904 47.3079C267.753 47.9151 267.702 48.5568 267.754 49.1913Z" fill="#E1DDDC"/>
<path d="M286.777 55.652H285.277V37.1746H286.777V55.652Z" fill="#E1DDDC"/>
<path d="M289.628 38.596C289.624 38.3011 289.687 38.0113 289.811 37.7635C289.934 37.5158 290.111 37.3213 290.319 37.2049C290.527 37.0885 290.758 37.0553 290.981 37.1097C291.203 37.1641 291.409 37.3035 291.571 37.5103C291.732 37.717 291.843 37.9817 291.889 38.2706C291.935 38.5596 291.913 38.8597 291.827 39.1327C291.741 39.4057 291.595 39.6393 291.407 39.8038C291.219 39.9682 290.997 40.0561 290.77 40.0561C290.621 40.0578 290.474 40.0214 290.336 39.949C290.198 39.8765 290.073 39.7694 289.966 39.6338C289.86 39.4983 289.776 39.3368 289.718 39.1588C289.66 38.9807 289.629 38.7895 289.628 38.596ZM291.515 55.6521H290.055V42.7308H291.555L291.515 55.6521Z" fill="#E1DDDC"/>
<path d="M298.925 50.2509L297.575 49.8891C295.588 49.3335 294.595 48.1447 294.595 46.2453C294.595 43.661 296.353 42.3689 298.24 42.3689C299.154 42.2964 300.055 42.6882 300.751 43.4619C301.448 44.2355 301.887 45.3306 301.975 46.5166H300.515C300.424 45.82 300.134 45.1939 299.703 44.7647C299.271 44.3354 298.731 44.135 298.19 44.2037C296.889 44.2037 296.045 44.9661 296.045 46.1031C296.045 46.9689 296.532 47.602 297.763 47.9509L299.124 48.3127C301.111 48.8425 302.164 49.902 302.164 51.9565C302.164 54.3728 300.664 55.9104 298.369 55.9104C296.263 55.9104 294.485 54.6183 294.138 51.6076H295.618C295.752 52.3978 296.109 53.0938 296.618 53.558C297.128 54.0222 297.753 54.2207 298.369 54.1143C299.849 54.1143 300.684 53.3778 300.684 52.1115C300.674 51.1424 300.167 50.5998 298.925 50.2509Z" fill="#E1DDDC"/>
<path d="M308.313 55.7036C306.634 55.7036 305.511 54.7087 305.511 51.8272V44.5267H303.525V42.7436H305.511V39.8363L307.011 37.9885V42.7436H309.733V44.5267H307.011V51.5688C307.011 53.1452 307.359 53.9205 308.511 53.9205C308.938 53.927 309.359 53.789 309.733 53.5199V55.2902C309.298 55.5963 308.806 55.7395 308.313 55.7036Z" fill="#E1DDDC"/>
<path d="M247.878 483.567H239.395V465.09H240.934V481.668H247.888L247.878 483.567Z" fill="#E1DDDC"/>
<path d="M249.268 477.106C249.3 475.823 249.621 474.58 250.192 473.532C250.763 472.484 251.558 471.679 252.479 471.215C253.4 470.752 254.405 470.652 255.369 470.927C256.333 471.202 257.214 471.84 257.901 472.762C258.588 473.684 259.052 474.849 259.233 476.112C259.414 477.374 259.306 478.678 258.921 479.861C258.537 481.043 257.893 482.052 257.07 482.762C256.247 483.472 255.282 483.851 254.295 483.851C253.622 483.848 252.956 483.67 252.337 483.327C251.718 482.985 251.158 482.484 250.689 481.856C250.221 481.227 249.854 480.484 249.61 479.668C249.366 478.852 249.25 477.981 249.268 477.106ZM250.808 477.106C250.756 477.741 250.807 478.383 250.958 478.99C251.109 479.597 251.356 480.156 251.684 480.631C252.012 481.105 252.413 481.485 252.861 481.745C253.309 482.004 253.794 482.139 254.285 482.139C254.775 482.139 255.26 482.004 255.709 481.745C256.157 481.485 256.558 481.105 256.886 480.631C257.213 480.156 257.461 479.597 257.612 478.99C257.763 478.383 257.814 477.741 257.761 477.106C257.814 476.472 257.763 475.83 257.612 475.223C257.461 474.616 257.213 474.057 256.886 473.582C256.558 473.107 256.157 472.728 255.709 472.468C255.26 472.208 254.775 472.074 254.285 472.074C253.794 472.074 253.309 472.208 252.861 472.468C252.413 472.728 252.012 473.107 251.684 473.582C251.356 474.057 251.109 474.616 250.958 475.223C250.807 475.83 250.756 476.472 250.808 477.106Z" fill="#E1DDDC"/>
<path d="M266.155 478.153L264.794 477.791C262.808 477.235 261.814 476.047 261.814 474.147C261.814 471.628 263.582 470.335 265.47 470.335C266.388 470.249 267.296 470.633 267.999 471.406C268.703 472.178 269.146 473.278 269.235 474.47H267.774C267.684 473.773 267.394 473.145 266.963 472.714C266.532 472.283 265.991 472.079 265.45 472.144C264.149 472.144 263.294 472.92 263.294 474.044C263.294 474.923 263.781 475.556 265.023 475.892L266.374 476.266C268.36 476.783 269.413 477.843 269.413 479.897C269.413 482.326 267.913 483.851 265.629 483.851C263.523 483.851 261.735 482.559 261.397 479.561H262.867C263.008 480.349 263.368 481.04 263.878 481.501C264.389 481.962 265.013 482.159 265.629 482.055C267.109 482.055 267.943 481.319 267.943 480.052C267.903 479.057 267.397 478.502 266.155 478.153Z" fill="#E1DDDC"/>
<path d="M271.688 466.459C271.686 466.165 271.752 465.876 271.876 465.63C272 465.384 272.178 465.192 272.386 465.077C272.595 464.963 272.825 464.931 273.047 464.987C273.269 465.043 273.474 465.184 273.635 465.391C273.795 465.598 273.905 465.863 273.95 466.151C273.995 466.44 273.973 466.739 273.887 467.012C273.801 467.284 273.654 467.517 273.466 467.681C273.278 467.845 273.057 467.932 272.83 467.932C272.681 467.934 272.533 467.897 272.394 467.824C272.256 467.75 272.13 467.642 272.023 467.505C271.917 467.368 271.833 467.205 271.775 467.026C271.718 466.846 271.688 466.654 271.688 466.459ZM273.575 483.515H272.076V470.594H273.575V483.515Z" fill="#E1DDDC"/>
<path d="M276.834 470.646H278.294V472.145C278.68 471.543 279.168 471.067 279.719 470.753C280.271 470.439 280.871 470.296 281.472 470.336C283.946 470.336 285.386 472.39 285.386 476.047V483.567H283.886V475.892C283.886 473.463 282.893 472.145 281.333 472.145C279.347 472.145 278.353 474.122 278.353 477.184V483.567H276.853L276.834 470.646Z" fill="#E1DDDC"/>
<path d="M288.187 484.665H289.826C290.005 486.035 291.019 487.172 292.667 487.172C294.793 487.172 295.826 485.273 295.826 482.662V481.37C295.434 482.014 294.929 482.527 294.354 482.866C293.779 483.206 293.149 483.362 292.518 483.321C291.201 483.321 289.938 482.641 289.006 481.429C288.075 480.218 287.552 478.574 287.552 476.861C287.552 475.147 288.075 473.504 289.006 472.292C289.938 471.081 291.201 470.4 292.518 470.4C293.158 470.354 293.796 470.51 294.379 470.855C294.961 471.199 295.472 471.721 295.866 472.377V470.71H297.326V482.572C297.326 486.448 295.647 489.033 292.667 489.033C290.154 488.968 288.505 487.133 288.187 484.665ZM289.499 476.809C289.456 477.387 289.506 477.969 289.646 478.52C289.787 479.071 290.014 479.577 290.314 480.007C290.614 480.436 290.979 480.78 291.387 481.015C291.795 481.25 292.236 481.371 292.682 481.371C293.128 481.371 293.57 481.25 293.977 481.015C294.385 480.78 294.751 480.436 295.051 480.007C295.35 479.577 295.578 479.071 295.718 478.52C295.859 477.969 295.909 477.387 295.866 476.809C295.922 476.222 295.882 475.626 295.748 475.06C295.614 474.495 295.389 473.973 295.088 473.529C294.787 473.085 294.417 472.73 294.002 472.486C293.587 472.243 293.137 472.117 292.682 472.117C292.227 472.117 291.778 472.243 291.363 472.486C290.948 472.73 290.578 473.085 290.277 473.529C289.976 473.973 289.751 474.495 289.617 475.06C289.482 475.626 289.442 476.222 289.499 476.809Z" fill="#E1DDDC"/>
<path d="M216.985 507.807H218.445V509.306C218.768 508.714 219.2 508.238 219.702 507.922C220.204 507.606 220.759 507.459 221.316 507.497C221.903 507.462 222.485 507.637 223.001 508.004C223.516 508.371 223.943 508.915 224.236 509.578C224.578 508.903 225.049 508.356 225.603 507.991C226.157 507.627 226.775 507.456 227.395 507.497C230.008 507.497 231.19 509.552 231.19 513.208V520.729H229.69V513.053C229.69 510.624 228.875 509.306 227.375 509.306C225.875 509.306 224.822 510.895 224.822 513.661V520.729H223.322V513.183C223.322 510.598 222.518 509.306 221.077 509.306C219.438 509.306 218.485 510.921 218.485 513.661V520.729H216.985V507.807Z" fill="#E1DDDC"/>
<path d="M233.822 514.268C233.853 512.984 234.174 511.741 234.745 510.694C235.316 509.646 236.112 508.84 237.032 508.377C237.953 507.914 238.958 507.813 239.923 508.088C240.887 508.363 241.768 509.002 242.455 509.924C243.142 510.846 243.605 512.011 243.787 513.273C243.968 514.536 243.86 515.839 243.475 517.022C243.09 518.205 242.446 519.214 241.624 519.924C240.801 520.633 239.836 521.012 238.848 521.013C238.176 521.008 237.511 520.829 236.892 520.485C236.274 520.142 235.714 519.642 235.246 519.014C234.778 518.386 234.411 517.642 234.166 516.827C233.922 516.013 233.805 515.142 233.822 514.268ZM235.362 514.268C235.418 515.148 235.67 515.989 236.087 516.686C236.504 517.383 237.068 517.908 237.71 518.195C238.352 518.482 239.045 518.519 239.704 518.303C240.362 518.086 240.958 517.625 241.418 516.975C241.878 516.325 242.183 515.515 242.295 514.644C242.407 513.772 242.322 512.877 242.049 512.068C241.777 511.259 241.329 510.57 240.76 510.087C240.192 509.603 239.528 509.345 238.848 509.345C238.365 509.347 237.887 509.478 237.445 509.731C237.003 509.984 236.606 510.353 236.278 510.816C235.951 511.278 235.7 511.823 235.543 512.417C235.385 513.011 235.323 513.641 235.362 514.268Z" fill="#E1DDDC"/>
<path d="M246.586 507.807H248.047V509.306C248.371 508.713 248.805 508.237 249.308 507.92C249.812 507.604 250.369 507.459 250.927 507.497C251.512 507.464 252.093 507.641 252.606 508.008C253.12 508.374 253.546 508.918 253.838 509.578C254.183 508.904 254.656 508.358 255.211 507.993C255.767 507.629 256.385 507.458 257.007 507.497C259.619 507.497 260.791 509.552 260.791 513.209V520.729H259.261V513.053C259.261 510.624 258.457 509.306 256.957 509.306C255.457 509.306 254.404 510.896 254.404 513.661V520.729H252.904V513.183C252.904 510.598 252.09 509.306 250.649 509.306C249.01 509.306 248.057 510.921 248.057 513.661V520.729H246.557L246.586 507.807Z" fill="#E1DDDC"/>
<path d="M272.691 514.862H264.973C264.964 515.431 265.042 515.996 265.204 516.524C265.367 517.052 265.609 517.533 265.916 517.937C266.224 518.34 266.591 518.66 266.996 518.875C267.4 519.091 267.834 519.198 268.271 519.191C268.87 519.22 269.461 519.001 269.957 518.564C270.454 518.127 270.83 517.496 271.032 516.762H272.592C272.361 518.01 271.803 519.115 271.015 519.888C270.227 520.661 269.257 521.054 268.271 521C265.4 521 263.433 518.261 263.433 514.333C263.433 510.405 265.192 507.484 268.152 507.484C271.44 507.484 272.711 510.986 272.711 513.945C272.711 514.41 272.691 514.862 272.691 514.862ZM268.201 509.332C267.407 509.32 266.64 509.707 266.059 510.412C265.478 511.117 265.128 512.086 265.082 513.118H271.181C271.184 512.612 271.109 512.111 270.959 511.644C270.809 511.177 270.589 510.754 270.311 510.4C270.032 510.047 269.702 509.77 269.34 509.587C268.977 509.403 268.59 509.316 268.201 509.332Z" fill="#E1DDDC"/>
<path d="M275.473 507.807H276.933V509.306C277.319 508.705 277.807 508.228 278.358 507.914C278.91 507.6 279.51 507.458 280.112 507.497C282.585 507.497 284.025 509.552 284.025 513.208V520.729H282.525V513.053C282.525 510.624 281.532 509.306 279.973 509.306C277.986 509.306 276.993 511.296 276.993 514.345V520.729H275.493L275.473 507.807Z" fill="#E1DDDC"/>
<path d="M290.452 520.729C288.774 520.729 287.661 519.721 287.661 516.852V509.526H285.674V507.807H287.661V504.913L289.161 503.065V507.807H291.873V509.603H289.161V516.645C289.161 518.222 289.499 518.984 290.651 518.984C291.077 518.991 291.497 518.858 291.873 518.597V520.354C291.436 520.651 290.943 520.781 290.452 520.729Z" fill="#E1DDDC"/>
<path d="M302.323 520.729H300.862V519.204C300.489 519.805 300.012 520.282 299.47 520.596C298.928 520.911 298.336 521.054 297.743 521.013C295.19 521.013 294.018 518.984 294.018 515.328V507.807H295.518V515.405C295.518 517.847 296.363 519.178 297.952 519.178C299.869 519.178 300.823 517.253 300.823 514.191V507.807H302.323V520.729Z" fill="#E1DDDC"/>
<path d="M305.581 507.807H307.041V509.306C307.365 508.713 307.799 508.237 308.303 507.92C308.806 507.604 309.363 507.459 309.922 507.497C310.508 507.462 311.091 507.637 311.606 508.004C312.122 508.371 312.549 508.916 312.842 509.578C313.184 508.903 313.655 508.356 314.209 507.992C314.763 507.627 315.381 507.456 316.001 507.497C318.613 507.497 319.786 509.552 319.786 513.209V520.729H318.286V513.053C318.286 510.624 317.481 509.306 315.981 509.306C314.481 509.306 313.428 510.896 313.428 513.661V520.729H311.908V513.183C311.908 510.598 311.094 509.306 309.653 509.306C308.014 509.306 307.061 510.921 307.061 513.661V520.729H305.561L305.581 507.807Z" fill="#E1DDDC"/>
<path d="M410.507 223.991V232.454H408.968V213.977H418.007V215.876H410.507V222.091H417.56V223.991H410.507Z" fill="#E1DDDC"/>
<path d="M428.894 226.601H421.176C421.168 227.17 421.248 227.736 421.411 228.264C421.574 228.792 421.817 229.272 422.125 229.676C422.434 230.08 422.802 230.399 423.207 230.614C423.612 230.829 424.046 230.937 424.483 230.93C425.081 230.958 425.67 230.738 426.165 230.301C426.66 229.864 427.035 229.233 427.235 228.5H428.795C428.565 229.747 428.01 230.852 427.223 231.625C426.437 232.398 425.468 232.792 424.483 232.739C421.603 232.739 419.636 229.999 419.636 226.071C419.636 222.143 421.404 219.223 424.364 219.223C427.642 219.223 428.924 222.725 428.924 225.684C428.914 226.123 428.894 226.601 428.894 226.601ZM424.354 221.071C423.559 221.059 422.79 221.445 422.208 222.15C421.626 222.855 421.274 223.824 421.225 224.857H427.394C427.396 224.344 427.317 223.837 427.164 223.366C427.01 222.894 426.784 222.468 426.499 222.114C426.215 221.76 425.878 221.485 425.509 221.305C425.141 221.126 424.748 221.046 424.354 221.071Z" fill="#E1DDDC"/>
<path d="M440.357 226.601H432.639C432.629 227.171 432.708 227.737 432.871 228.266C433.034 228.795 433.277 229.276 433.585 229.68C433.894 230.084 434.262 230.403 434.668 230.618C435.074 230.832 435.509 230.938 435.947 230.93C436.544 230.958 437.133 230.738 437.628 230.301C438.123 229.864 438.498 229.233 438.698 228.5H440.258C440.028 229.747 439.473 230.852 438.686 231.625C437.9 232.398 436.931 232.792 435.947 232.739C433.096 232.739 431.109 229.999 431.109 226.123C431.109 222.247 432.877 219.275 435.827 219.275C439.115 219.275 440.387 222.776 440.387 225.735C440.377 226.123 440.357 226.601 440.357 226.601ZM435.817 221.071C435.027 221.062 434.264 221.446 433.684 222.145C433.104 222.844 432.752 223.805 432.698 224.831H438.857C438.858 224.32 438.778 223.815 438.624 223.346C438.469 222.876 438.243 222.453 437.958 222.101C437.674 221.749 437.338 221.476 436.969 221.299C436.601 221.122 436.209 221.044 435.817 221.071Z" fill="#E1DDDC"/>
<path d="M444.628 232.454H443.128V213.977H444.628V232.454Z" fill="#E1DDDC"/>
<path d="M447.489 215.398C447.489 215.107 447.556 214.822 447.68 214.58C447.804 214.337 447.981 214.149 448.188 214.037C448.395 213.926 448.623 213.897 448.843 213.953C449.062 214.01 449.264 214.15 449.422 214.356C449.581 214.563 449.689 214.825 449.732 215.111C449.776 215.396 449.754 215.693 449.668 215.962C449.582 216.231 449.437 216.461 449.251 216.623C449.065 216.785 448.846 216.871 448.622 216.871C448.321 216.871 448.033 216.716 447.821 216.44C447.608 216.163 447.489 215.789 447.489 215.398ZM449.367 232.454H447.867V219.533H449.367V232.454Z" fill="#E1DDDC"/>
<path d="M452.625 219.533H454.085V221.045C454.469 220.44 454.957 219.961 455.509 219.644C456.06 219.328 456.661 219.184 457.264 219.223C459.737 219.223 461.177 221.277 461.177 224.947V232.454H459.677V224.831C459.677 222.414 458.684 221.096 457.125 221.096C455.138 221.096 454.145 223.073 454.145 226.123V232.506H452.645L452.625 219.533Z" fill="#E1DDDC"/>
<path d="M463.979 233.566H465.618C465.779 234.359 466.155 235.05 466.677 235.511C467.199 235.972 467.832 236.171 468.459 236.072C470.584 236.072 471.617 234.173 471.617 231.563V230.271C471.23 230.918 470.727 231.434 470.153 231.774C469.579 232.114 468.949 232.267 468.319 232.222C467.002 232.222 465.739 231.541 464.808 230.329C463.876 229.118 463.353 227.475 463.353 225.761C463.353 224.048 463.876 222.404 464.808 221.193C465.739 219.981 467.002 219.3 468.319 219.3C468.956 219.262 469.591 219.422 470.172 219.765C470.752 220.109 471.261 220.627 471.657 221.277V219.533H473.117V231.395C473.117 235.271 471.439 237.855 468.459 237.855C465.945 237.855 464.306 235.956 463.979 233.566ZM465.3 225.709C465.257 226.287 465.307 226.869 465.445 227.42C465.584 227.972 465.809 228.48 466.105 228.913C466.402 229.346 466.764 229.694 467.169 229.937C467.574 230.18 468.013 230.311 468.459 230.322C469.337 230.201 470.15 229.662 470.741 228.808C471.331 227.954 471.658 226.845 471.658 225.696C471.658 224.548 471.331 223.439 470.741 222.585C470.15 221.731 469.337 221.192 468.459 221.071C466.651 221.071 465.3 222.944 465.3 225.709Z" fill="#E1DDDC"/>
<path d="M480.518 227.053L479.157 226.678C477.17 226.123 476.177 224.947 476.177 223.048C476.177 220.463 477.945 219.171 479.822 219.171C480.742 219.085 481.651 219.468 482.356 220.241C483.061 221.013 483.506 222.113 483.597 223.306H482.137C482.044 222.608 481.752 221.982 481.319 221.553C480.886 221.124 480.344 220.924 479.803 220.993C478.511 220.993 477.657 221.755 477.657 222.893C477.657 223.758 478.144 224.391 479.385 224.727L480.736 225.102C482.723 225.632 483.776 226.679 483.776 228.733C483.776 231.162 482.276 232.687 479.991 232.687C477.885 232.687 476.097 231.395 475.75 228.397H477.23C477.368 229.187 477.727 229.881 478.238 230.345C478.749 230.808 479.374 231.008 479.991 230.904C481.471 230.904 482.296 230.167 482.296 228.901C482.256 227.945 481.769 227.415 480.518 227.053Z" fill="#E1DDDC"/>
<path d="M492.11 225.994C492.141 224.71 492.462 223.467 493.033 222.419C493.604 221.372 494.4 220.566 495.32 220.102C496.241 219.639 497.246 219.539 498.211 219.814C499.175 220.089 500.056 220.728 500.743 221.65C501.43 222.572 501.893 223.737 502.074 224.999C502.256 226.261 502.148 227.565 501.763 228.748C501.378 229.93 500.734 230.94 499.912 231.649C499.089 232.359 498.124 232.738 497.136 232.738C496.464 232.734 495.799 232.554 495.18 232.211C494.562 231.868 494.002 231.367 493.534 230.739C493.066 230.111 492.699 229.368 492.454 228.553C492.21 227.738 492.093 226.868 492.11 225.994ZM493.65 225.994C493.706 226.874 493.957 227.714 494.375 228.412C494.792 229.109 495.356 229.633 495.998 229.92C496.64 230.207 497.333 230.245 497.992 230.028C498.65 229.812 499.246 229.35 499.706 228.701C500.166 228.051 500.471 227.241 500.583 226.369C500.695 225.498 500.61 224.603 500.337 223.794C500.065 222.985 499.617 222.296 499.048 221.812C498.48 221.329 497.815 221.071 497.136 221.071C496.656 221.079 496.183 221.216 495.746 221.472C495.308 221.728 494.915 222.099 494.592 222.56C494.269 223.022 494.022 223.564 493.867 224.155C493.712 224.746 493.651 225.371 493.689 225.994H493.65Z" fill="#E1DDDC"/>
<path d="M508.5 213.977C509.024 213.924 509.547 214.082 510 214.429V216.264C509.569 215.951 509.083 215.786 508.589 215.786C507.437 215.786 506.831 216.677 506.831 218.551V219.52H509.483V221.316H506.801V232.441H505.301V221.316H503.374V219.533H505.301V218.564C505.301 215.295 506.742 213.977 508.5 213.977Z" fill="#E1DDDC"/>
<path d="M408.59 263.142C408.623 261.859 408.946 260.618 409.518 259.572C410.09 258.526 410.886 257.722 411.807 257.261C412.728 256.799 413.733 256.701 414.696 256.977C415.66 257.254 416.54 257.893 417.226 258.816C417.912 259.738 418.374 260.903 418.555 262.165C418.736 263.427 418.627 264.73 418.242 265.912C417.857 267.094 417.213 268.102 416.39 268.812C415.568 269.521 414.603 269.899 413.616 269.9C412.943 269.895 412.277 269.716 411.658 269.371C411.039 269.027 410.479 268.526 410.01 267.896C409.542 267.267 409.175 266.522 408.932 265.706C408.688 264.889 408.572 264.018 408.59 263.142ZM410.13 263.142C410.186 264.023 410.438 264.863 410.855 265.56C411.272 266.258 411.836 266.782 412.478 267.069C413.12 267.356 413.813 267.394 414.472 267.177C415.13 266.96 415.726 266.499 416.186 265.849C416.646 265.2 416.951 264.389 417.063 263.518C417.175 262.647 417.09 261.752 416.817 260.942C416.545 260.133 416.097 259.445 415.528 258.961C414.96 258.478 414.296 258.22 413.616 258.219C413.133 258.219 412.654 258.349 412.211 258.601C411.768 258.854 411.37 259.223 411.043 259.686C410.715 260.148 410.465 260.695 410.308 261.289C410.15 261.884 410.09 262.515 410.13 263.142Z" fill="#E1DDDC"/>
<path d="M427.136 256.695H428.785L425.07 269.616H423.49L419.785 256.695H421.424L424.285 267.238L427.136 256.695Z" fill="#E1DDDC"/>
<path d="M439.304 263.75H431.586C431.576 264.319 431.655 264.885 431.818 265.414C431.981 265.943 432.224 266.424 432.532 266.828C432.841 267.233 433.21 267.551 433.615 267.766C434.021 267.981 434.456 268.087 434.894 268.078C435.491 268.107 436.08 267.887 436.575 267.45C437.07 267.013 437.445 266.382 437.645 265.649H439.205C438.976 266.897 438.42 268.003 437.634 268.779C436.848 269.554 435.879 269.95 434.894 269.9C432.013 269.9 430.046 267.148 430.046 263.22C430.046 259.292 431.814 256.372 434.774 256.372C438.052 256.372 439.334 259.873 439.334 262.832C439.334 263.31 439.304 263.75 439.304 263.75ZM434.774 258.219C433.977 258.208 433.208 258.596 432.625 259.303C432.042 260.011 431.691 260.983 431.645 262.018H437.814C437.817 261.505 437.74 260.996 437.587 260.523C437.433 260.05 437.208 259.623 436.923 259.267C436.639 258.912 436.301 258.635 435.932 258.455C435.562 258.275 435.169 258.195 434.774 258.219Z" fill="#E1DDDC"/>
<path d="M447.718 257.586V259.615C447.474 259.269 447.178 258.991 446.848 258.8C446.518 258.609 446.162 258.508 445.801 258.504C444.599 258.504 443.585 259.563 443.585 262.38V269.629H442.085V256.708H443.546V258.181C443.774 257.661 444.105 257.232 444.506 256.938C444.907 256.645 445.361 256.498 445.82 256.514C446.178 256.5 446.533 256.589 446.861 256.775C447.189 256.96 447.481 257.237 447.718 257.586Z" fill="#E1DDDC"/>
<path d="M450.757 256.695L453.092 267.471L455.416 256.695H457.403L459.737 267.471L462.071 256.695H463.71L460.73 269.616H458.923L456.469 258.943L453.956 269.603H452.078L449.098 256.682L450.757 256.695Z" fill="#E1DDDC"/>
<path d="M465.876 251.125H467.376V258.193C467.751 257.588 468.231 257.108 468.777 256.791C469.322 256.474 469.918 256.33 470.515 256.372C472.988 256.372 474.429 258.426 474.429 262.096V269.603H472.929V261.928C472.929 259.511 471.935 258.193 470.376 258.193C468.389 258.193 467.396 260.17 467.396 263.22V269.603H465.876V251.125Z" fill="#E1DDDC"/>
<path d="M486.309 263.75H478.581C478.573 264.319 478.653 264.884 478.816 265.412C478.979 265.941 479.222 266.421 479.53 266.824C479.839 267.228 480.207 267.547 480.612 267.763C481.017 267.978 481.451 268.085 481.889 268.078C482.486 268.107 483.075 267.887 483.57 267.45C484.065 267.013 484.44 266.382 484.64 265.649H486.2C485.97 266.897 485.415 268.003 484.629 268.779C483.843 269.554 482.874 269.95 481.889 269.9C479.008 269.9 477.041 267.148 477.041 263.22C477.041 259.292 478.809 256.372 481.769 256.372C485.047 256.372 486.329 259.873 486.329 262.832C486.329 263.31 486.309 263.75 486.309 263.75ZM481.769 258.219C480.972 258.208 480.202 258.596 479.62 259.303C479.037 260.011 478.686 260.983 478.64 262.018H484.809C484.812 261.505 484.735 260.996 484.582 260.523C484.428 260.05 484.203 259.623 483.918 259.267C483.634 258.912 483.296 258.635 482.927 258.455C482.557 258.275 482.163 258.195 481.769 258.219Z" fill="#E1DDDC"/>
<path d="M490.57 269.603H489.07V251.125H490.57V269.603Z" fill="#E1DDDC"/>
<path d="M493.799 256.695H495.259V258.194C495.581 257.597 496.015 257.118 496.518 256.799C497.022 256.48 497.58 256.333 498.14 256.372C498.725 256.339 499.305 256.515 499.819 256.882C500.332 257.249 500.758 257.792 501.05 258.452C501.395 257.778 501.868 257.233 502.423 256.868C502.979 256.503 503.597 256.332 504.219 256.372C506.831 256.372 508.003 258.426 508.003 262.096V269.603H506.503V261.928C506.503 259.512 505.699 258.194 504.199 258.194C502.699 258.194 501.636 259.718 501.636 262.535V269.603H500.146V262.07C500.146 259.486 499.332 258.194 497.891 258.194C496.252 258.194 495.299 259.796 495.299 262.535V269.603H493.799V256.695Z" fill="#E1DDDC"/>
<path d="M19.3502 224.585L17.741 224.159C15.5557 223.577 13.5889 222.13 13.5889 219.12C13.5889 215.799 15.963 213.951 18.4562 213.951C19.7456 213.834 21.0181 214.387 21.9941 215.489C22.97 216.592 23.5697 218.153 23.6613 219.83H22.1217C22.0844 219.249 21.9584 218.683 21.7512 218.166C21.544 217.648 21.2596 217.19 20.9147 216.817C20.5698 216.444 20.1713 216.164 19.7423 215.994C19.3134 215.823 18.8627 215.766 18.4165 215.825C16.4894 215.825 15.1286 217.052 15.1286 219.003C15.1286 220.954 16.41 221.691 18.1086 222.169L19.6085 222.57C22.2409 223.254 23.8898 224.805 23.8898 227.738C23.8898 230.671 21.9826 233.01 18.8039 233.01C17.3865 233.137 15.9867 232.542 14.9005 231.351C13.8142 230.159 13.1266 228.465 12.9829 226.627H14.5226C14.657 227.97 15.1839 229.195 15.994 230.047C16.8042 230.899 17.8353 231.312 18.8734 231.201C20.8601 231.201 22.3998 230.064 22.3998 227.88C22.3899 225.903 21.0886 225.05 19.3502 224.585Z" fill="#E1DDDC"/>
<path d="M26.244 215.786C26.244 215.492 26.311 215.205 26.4365 214.96C26.562 214.716 26.7405 214.525 26.9492 214.413C27.1579 214.3 27.3876 214.271 27.6092 214.328C27.8308 214.386 28.0343 214.527 28.1941 214.735C28.3539 214.943 28.4627 215.208 28.5067 215.496C28.5508 215.784 28.5282 216.083 28.4417 216.354C28.3553 216.626 28.2088 216.858 28.021 217.021C27.8331 217.185 27.6123 217.272 27.3863 217.272C27.236 217.273 27.0868 217.236 26.9476 217.162C26.8084 217.088 26.682 216.979 26.5756 216.84C26.4693 216.702 26.3852 216.537 26.3283 216.356C26.2713 216.175 26.2427 215.981 26.244 215.786ZM28.1313 232.842H26.6314V219.921H28.1313V232.842Z" fill="#E1DDDC"/>
<path d="M34.8563 232.829C33.1775 232.829 32.065 231.834 32.065 228.953V221.626H30.0783V219.843H32.065V216.936L33.5649 215.088V219.843H36.2767V221.626H33.5649V228.707C33.5649 230.284 33.9027 231.059 35.0649 231.059C35.4887 231.064 35.9063 230.926 36.2767 230.658V232.429C35.8408 232.73 35.3491 232.869 34.8563 232.829Z" fill="#E1DDDC"/>
<path d="M42.5645 232.829C40.8858 232.829 39.7733 231.834 39.7733 228.953V221.626H37.7866V219.843H39.7733V216.936L41.2633 215.088V219.843H43.985V221.626H41.2633V228.707C41.2633 230.284 41.6109 231.059 42.7632 231.059C43.1903 231.065 43.6113 230.927 43.985 230.658V232.429C43.5491 232.73 43.0574 232.869 42.5645 232.829Z" fill="#E1DDDC"/>
<path d="M45.8028 215.786C45.8028 215.491 45.8701 215.203 45.9961 214.959C46.122 214.714 46.301 214.524 46.5103 214.412C46.7197 214.3 46.9499 214.271 47.1717 214.329C47.3936 214.388 47.5971 214.531 47.7565 214.74C47.9158 214.949 48.0238 215.215 48.0668 215.504C48.1097 215.793 48.0857 216.092 47.9977 216.363C47.9097 216.635 47.7617 216.866 47.5726 217.028C47.3834 217.189 47.1616 217.274 46.9352 217.272C46.7857 217.272 46.6376 217.233 46.4996 217.158C46.3615 217.083 46.2363 216.974 46.131 216.836C46.0257 216.698 45.9425 216.534 45.8862 216.353C45.8298 216.173 45.8015 215.98 45.8028 215.786ZM47.6902 232.842H46.1902V219.921H47.6802L47.6902 232.842Z" fill="#E1DDDC"/>
<path d="M50.9484 219.869H52.4086V221.368C52.7923 220.762 53.2797 220.282 53.8317 219.966C54.3836 219.65 54.9849 219.506 55.5873 219.546C58.0607 219.546 59.501 221.6 59.501 225.27V232.777H58.0011V225.115C58.0011 222.686 57.0077 221.368 55.4482 221.368C53.4615 221.368 52.4682 223.345 52.4682 226.407V232.777H50.9484V219.869Z" fill="#E1DDDC"/>
<path d="M62.3022 233.876H63.9412C64.12 235.245 65.1332 236.382 66.7722 236.382C68.9079 236.382 69.941 234.483 69.941 231.873V230.581C69.5485 231.225 69.0437 231.737 68.4685 232.077C67.8932 232.416 67.264 232.572 66.6331 232.532C65.3159 232.532 64.0526 231.851 63.1212 230.64C62.1897 229.428 61.6664 227.785 61.6664 226.071C61.6664 224.358 62.1897 222.714 63.1212 221.503C64.0526 220.291 65.3159 219.611 66.6331 219.611C67.2716 219.571 67.9081 219.73 68.4902 220.074C69.0722 220.418 69.5831 220.936 69.9807 221.588V219.934H71.4409V231.795C71.4409 235.672 69.7522 238.256 66.7722 238.256C64.269 238.178 62.5803 236.292 62.3022 233.876ZM63.5737 226.032C63.5306 226.61 63.581 227.193 63.7214 227.743C63.8618 228.294 64.0893 228.801 64.3891 229.23C64.6889 229.66 65.0545 230.003 65.4623 230.238C65.8701 230.473 66.3113 230.594 66.7573 230.594C67.2033 230.594 67.6445 230.473 68.0523 230.238C68.4602 230.003 68.8257 229.66 69.1255 229.23C69.4253 228.801 69.6528 228.294 69.7932 227.743C69.9336 227.193 69.984 226.61 69.941 226.032C69.9975 225.445 69.9573 224.849 69.8231 224.283C69.689 223.718 69.4639 223.196 69.1628 222.752C68.8617 222.309 68.4915 221.953 68.0768 221.71C67.6621 221.466 67.2123 221.341 66.7573 221.341C66.3023 221.341 65.8525 221.466 65.4378 221.71C65.0231 221.953 64.6529 222.309 64.3518 222.752C64.0507 223.196 63.8256 223.718 63.6915 224.283C63.5573 224.849 63.5172 225.445 63.5737 226.032Z" fill="#E1DDDC"/>
<path d="M80.3214 226.317C80.3545 225.034 80.6773 223.792 81.2493 222.746C81.8214 221.7 82.6175 220.896 83.5383 220.435C84.4592 219.974 85.4641 219.875 86.4277 220.152C87.3913 220.428 88.271 221.068 88.9572 221.99C89.6433 222.913 90.1055 224.077 90.2862 225.339C90.4668 226.601 90.3579 227.904 89.973 229.086C89.5881 230.268 88.9443 231.277 88.1218 231.986C87.2993 232.695 86.3345 233.074 85.3477 233.074C84.6743 233.07 84.0085 232.89 83.3893 232.546C82.7701 232.202 82.21 231.7 81.7418 231.071C81.2736 230.441 80.9068 229.696 80.6629 228.88C80.4189 228.064 80.3028 227.192 80.3214 226.317ZM81.8611 226.317C81.917 227.197 82.1689 228.037 82.5859 228.735C83.003 229.432 83.5671 229.956 84.2095 230.243C84.8518 230.53 85.5445 230.568 86.2029 230.351C86.8614 230.135 87.4571 229.673 87.9173 229.024C88.3775 228.374 88.6823 227.564 88.7943 226.692C88.9064 225.821 88.821 224.926 88.5484 224.117C88.2759 223.308 87.8281 222.619 87.2597 222.135C86.6912 221.652 86.0269 221.394 85.3477 221.394C84.8641 221.393 84.3856 221.523 83.9427 221.776C83.4997 222.028 83.1018 222.397 82.7741 222.86C82.4464 223.323 82.1961 223.869 82.0389 224.464C81.8818 225.059 81.8212 225.69 81.8611 226.317Z" fill="#E1DDDC"/>
<path d="M93.0758 219.869H94.536V221.368C94.9223 220.763 95.4116 220.283 95.965 219.967C96.5185 219.651 97.1209 219.507 97.7246 219.546C100.188 219.546 101.628 221.6 101.628 225.27V232.777H100.129V225.115C100.129 222.686 99.1352 221.368 97.5756 221.368C95.589 221.368 94.5956 223.345 94.5956 226.407V232.777H93.0758V219.869Z" fill="#E1DDDC"/>
<path d="M114.403 232.829C112.714 232.829 111.602 231.834 111.602 228.953V221.626H109.615V219.843H111.602V216.936L113.102 215.088V219.843H115.823V221.626H113.102V228.707C113.102 230.284 113.449 231.059 114.601 231.059C115.029 231.065 115.45 230.927 115.823 230.658V232.429C115.387 232.73 114.896 232.869 114.403 232.829Z" fill="#E1DDDC"/>
<path d="M118.078 214.3H119.578V221.368C119.953 220.763 120.433 220.282 120.979 219.965C121.525 219.648 122.12 219.505 122.717 219.546C125.19 219.546 126.631 221.6 126.631 225.27V232.777H125.161V225.115C125.161 222.686 124.167 221.368 122.608 221.368C120.621 221.368 119.628 223.345 119.628 226.407V232.777H118.128L118.078 214.3Z" fill="#E1DDDC"/>
<path d="M138.501 226.924H130.783C130.769 227.498 130.846 228.069 131.007 228.604C131.169 229.138 131.412 229.625 131.722 230.033C132.032 230.441 132.403 230.764 132.812 230.98C133.221 231.196 133.659 231.302 134.101 231.291C134.7 231.323 135.291 231.104 135.788 230.667C136.285 230.23 136.661 229.597 136.862 228.862H138.422C138.192 230.113 137.636 231.22 136.847 231.996C136.059 232.771 135.088 233.166 134.101 233.113C131.23 233.113 129.263 230.374 129.263 226.446C129.263 222.518 131.021 219.585 133.982 219.585C137.269 219.585 138.541 223.086 138.541 226.045C138.521 226.485 138.501 226.924 138.501 226.924ZM133.962 221.394C133.166 221.382 132.397 221.771 131.816 222.479C131.235 223.186 130.886 224.159 130.843 225.193H137.001C137.006 224.679 136.929 224.169 136.777 223.695C136.624 223.221 136.398 222.793 136.114 222.437C135.829 222.081 135.491 221.805 135.121 221.626C134.751 221.446 134.356 221.367 133.962 221.394Z" fill="#E1DDDC"/>
<path d="M7.9467 265.765H9.46651C9.25372 267.068 8.69295 268.231 7.88373 269.047C7.0745 269.863 6.06917 270.28 5.04615 270.223C3.70631 270.147 2.44079 269.401 1.51341 268.141C0.586038 266.881 0.0683899 265.203 0.0683899 263.459C0.0683899 261.714 0.586038 260.037 1.51341 258.777C2.44079 257.517 3.70631 256.771 5.04615 256.695C6.08786 256.663 7.10466 257.111 7.91707 257.96C8.72948 258.809 9.28529 260.003 9.48638 261.333H7.84737C7.68614 260.509 7.31191 259.782 6.78743 259.274C6.26295 258.765 5.62011 258.507 4.96669 258.542C4.01963 258.652 3.13837 259.218 2.49648 260.131C1.85458 261.043 1.49858 262.235 1.49858 263.472C1.49858 264.709 1.85458 265.901 2.49648 266.813C3.13837 267.725 4.01963 268.292 4.96669 268.401C5.62079 268.476 6.27454 268.254 6.81749 267.774C7.36044 267.293 7.7593 266.584 7.9467 265.765Z" fill="#E1DDDC"/>
<path d="M11.3936 263.478C11.4248 262.195 11.7459 260.952 12.3168 259.904C12.8878 258.856 13.6832 258.051 14.604 257.587C15.5247 257.124 16.53 257.024 17.4943 257.299C18.4586 257.574 19.3392 258.212 20.0264 259.134C20.7135 260.057 21.1767 261.221 21.3581 262.484C21.5395 263.746 21.4311 265.05 21.0464 266.233C20.6618 267.415 20.0179 268.425 19.1951 269.134C18.3723 269.844 17.4071 270.223 16.4199 270.223C15.7478 270.217 15.0835 270.036 14.4655 269.692C13.8476 269.348 13.2885 268.848 12.8207 268.22C12.3529 267.593 11.9858 266.85 11.7408 266.036C11.4958 265.222 11.3778 264.352 11.3936 263.478ZM12.9333 263.478C12.9911 264.358 13.2445 265.197 13.6626 265.892C14.0807 266.588 14.6453 267.11 15.2877 267.395C15.93 267.68 16.6223 267.716 17.2801 267.498C17.9378 267.28 18.5326 266.818 18.9918 266.168C19.451 265.518 19.7549 264.708 19.8662 263.837C19.9776 262.966 19.8917 262.072 19.619 261.263C19.3464 260.455 18.8987 259.767 18.3306 259.284C17.7625 258.801 17.0986 258.543 16.4199 258.542C15.9337 258.538 15.4522 258.666 15.0061 258.918C14.56 259.169 14.1592 259.539 13.8292 260.004C13.4993 260.468 13.2474 261.017 13.0897 261.616C12.932 262.214 12.8719 262.848 12.9134 263.478H12.9333Z" fill="#E1DDDC"/>
<path d="M32.3729 269.926H30.9127V268.401C30.5439 269.002 30.0706 269.481 29.5318 269.798C28.993 270.114 28.4041 270.26 27.8135 270.223C25.2606 270.223 24.0885 268.195 24.0885 264.525V257.018H25.5785V264.602C25.5785 267.057 26.4328 268.375 28.0122 268.375C29.9392 268.375 30.8928 266.45 30.8928 263.388V257.018H32.3928L32.3729 269.926Z" fill="#E1DDDC"/>
<path d="M42.9917 265.765H44.5512C44.3384 267.068 43.7777 268.231 42.9684 269.047C42.1592 269.863 41.1539 270.28 40.1309 270.223C38.791 270.147 37.5255 269.401 36.5981 268.141C35.6708 266.881 35.1531 265.203 35.1531 263.459C35.1531 261.714 35.6708 260.037 36.5981 258.777C37.5255 257.517 38.791 256.771 40.1309 256.695C41.1726 256.663 42.1894 257.111 43.0018 257.96C43.8142 258.809 44.37 260.003 44.5711 261.333H42.9222C42.766 260.518 42.4 259.796 41.885 259.288C41.3701 258.781 40.737 258.517 40.0911 258.542C39.1441 258.652 38.2628 259.218 37.6209 260.131C36.979 261.043 36.623 262.235 36.623 263.472C36.623 264.709 36.979 265.901 37.6209 266.813C38.2628 267.725 39.1441 268.292 40.0911 268.401C40.7322 268.451 41.3674 268.218 41.8938 267.74C42.4203 267.261 42.8071 266.566 42.9917 265.765Z" fill="#E1DDDC"/>
<path d="M47.0743 251.449H48.5743V258.517C48.9493 257.911 49.4294 257.431 49.9751 257.114C50.5208 256.797 51.1165 256.654 51.7132 256.695C54.1867 256.695 55.627 258.749 55.627 262.419V269.926H54.1271V262.303C54.1271 259.873 53.1337 258.555 51.5742 258.555C49.5875 258.555 48.5941 260.532 48.5941 263.595V269.965H47.0743V251.449Z" fill="#E1DDDC"/>
<path d="M64.4875 263.478C64.4875 259.731 66.4047 256.695 69.2059 256.695C69.8452 256.675 70.4796 256.843 71.0624 257.185C71.6453 257.527 72.1616 258.035 72.5733 258.672V251.449H74.0633V269.926H72.6131V268.221C72.1958 268.864 71.6732 269.377 71.0837 269.724C70.4942 270.07 69.8527 270.241 69.2059 270.223C66.4047 270.223 64.4875 267.213 64.4875 263.478ZM66.0272 263.478C66.0272 266.244 67.259 268.402 69.2854 268.402C71.3118 268.402 72.6131 266.244 72.6131 263.478C72.6131 260.713 71.3317 258.543 69.2854 258.543C67.2391 258.543 66.0272 260.7 66.0272 263.478Z" fill="#E1DDDC"/>
<path d="M86.0728 264.086H78.3545C78.3451 264.653 78.4239 265.218 78.586 265.745C78.7482 266.273 78.9904 266.752 79.2983 267.155C79.6061 267.558 79.9733 267.876 80.3778 268.09C80.7822 268.304 81.2158 268.41 81.6524 268.401C82.255 268.438 82.8508 268.222 83.3517 267.785C83.8525 267.347 84.2319 266.712 84.4338 265.972H85.9933C85.7638 267.223 85.2072 268.33 84.419 269.106C83.6307 269.881 82.6598 270.276 81.6723 270.223C78.8015 270.223 76.8347 267.484 76.8347 263.556C76.8347 259.628 78.5929 256.695 81.5531 256.695C84.8311 256.695 86.1125 260.209 86.1125 263.155C86.0926 263.595 86.0728 264.086 86.0728 264.086ZM81.5332 258.542C80.742 258.53 79.9775 258.914 79.3971 259.613C78.8168 260.313 78.465 261.275 78.4141 262.302H84.5728C84.5733 261.792 84.4939 261.287 84.3394 260.817C84.1849 260.348 83.9586 259.925 83.6742 259.573C83.3898 259.221 83.0533 258.948 82.6852 258.771C82.3171 258.594 81.9252 258.516 81.5332 258.542Z" fill="#E1DDDC"/>
<path d="M92.5394 251.449C93.0632 251.396 93.5869 251.554 94.0394 251.901V253.749C93.5995 253.429 93.103 253.264 92.599 253.271C91.4368 253.271 90.8309 254.162 90.8309 256.036V257.018H93.4831V258.801H90.8309V269.926H89.331V258.801H87.4138V257.018H89.3409V256.036C89.331 252.767 90.7713 251.449 92.5394 251.449Z" fill="#E1DDDC"/>
<path d="M103.953 264.086H96.2347C96.2239 264.654 96.3016 265.219 96.4633 265.748C96.6249 266.276 96.8671 266.756 97.1753 267.159C97.4834 267.563 97.8511 267.88 98.2563 268.094C98.6614 268.307 99.0955 268.412 99.5325 268.401C100.132 268.433 100.723 268.214 101.22 267.777C101.717 267.34 102.093 266.707 102.294 265.972H103.854C103.622 267.221 103.065 268.328 102.277 269.103C101.49 269.878 100.52 270.274 99.5325 270.223C96.6519 270.223 94.6851 267.484 94.6851 263.556C94.6851 259.628 96.4532 256.695 99.4134 256.695C102.691 256.695 103.973 260.209 103.973 263.155C103.973 263.595 103.953 264.086 103.953 264.086ZM99.4134 258.542C98.6222 258.53 97.8576 258.914 97.2773 259.613C96.6969 260.313 96.3451 261.275 96.2943 262.302H102.453C102.452 261.792 102.372 261.288 102.217 260.82C102.062 260.351 101.835 259.928 101.551 259.577C101.267 259.225 100.931 258.953 100.564 258.775C100.196 258.597 99.805 258.518 99.4134 258.542Z" fill="#E1DDDC"/>
<path d="M112.883 268.505C112.482 269.076 111.989 269.525 111.44 269.822C110.891 270.119 110.298 270.256 109.704 270.223C107.817 270.223 106.138 269.034 106.138 266.424C106.138 263.814 107.837 262.793 110.112 262.625C112.178 262.496 112.784 261.863 112.784 260.791C112.784 259.356 111.711 258.517 110.37 258.517C110.057 258.474 109.74 258.513 109.439 258.633C109.137 258.752 108.857 258.949 108.616 259.212C108.374 259.475 108.175 259.798 108.031 260.162C107.887 260.526 107.801 260.925 107.777 261.333H106.357C106.369 260.674 106.486 260.025 106.701 259.428C106.915 258.83 107.223 258.297 107.603 257.861C107.984 257.425 108.43 257.097 108.913 256.896C109.396 256.695 109.905 256.627 110.41 256.695C112.923 256.695 114.323 258.439 114.323 261.605V269.926H113.131L112.883 268.505ZM109.824 268.427C110.213 268.472 110.606 268.408 110.975 268.239C111.344 268.07 111.681 267.8 111.964 267.447C112.246 267.095 112.467 266.668 112.612 266.195C112.757 265.722 112.822 265.214 112.804 264.706V263.595C112.005 264.083 111.133 264.334 110.251 264.331C108.443 264.46 107.638 265.171 107.638 266.36C107.638 267.549 108.552 268.427 109.824 268.427Z" fill="#E1DDDC"/>
<path d="M120.81 269.978C119.131 269.978 118.009 268.983 118.009 266.101V258.762H116.022V256.979H118.009V254.072L119.509 252.237V256.979H122.23V258.762H119.509V265.804C119.509 267.393 119.856 268.156 121.009 268.156C121.436 268.162 121.857 268.024 122.23 267.755V269.525C121.798 269.845 121.306 270.002 120.81 269.978Z" fill="#E1DDDC"/>
<path d="M133.107 264.086H125.389C125.38 264.655 125.459 265.22 125.622 265.748C125.784 266.277 126.027 266.757 126.336 267.16C126.645 267.563 127.014 267.881 127.419 268.094C127.825 268.307 128.26 268.412 128.697 268.401C129.295 268.432 129.885 268.212 130.38 267.775C130.875 267.338 131.25 266.706 131.449 265.972H133.008C132.781 267.221 132.226 268.329 131.439 269.105C130.653 269.88 129.683 270.276 128.697 270.223C125.816 270.223 123.849 267.484 123.849 263.556C123.849 259.628 125.618 256.695 128.568 256.695C131.856 256.695 133.127 260.209 133.127 263.155C133.107 263.595 133.107 264.086 133.107 264.086ZM128.568 258.542C127.773 258.537 127.007 258.928 126.427 259.634C125.847 260.341 125.497 261.309 125.449 262.341H131.607C131.613 261.822 131.535 261.306 131.379 260.828C131.223 260.349 130.993 259.918 130.703 259.561C130.413 259.204 130.069 258.929 129.693 258.754C129.317 258.579 128.917 258.507 128.518 258.542H128.568Z" fill="#E1DDDC"/>
<path d="M135.273 263.478C135.273 259.731 137.2 256.695 139.991 256.695C140.631 256.675 141.265 256.843 141.848 257.185C142.431 257.527 142.947 258.035 143.359 258.672V251.449H144.859V269.926H143.398V268.221C142.981 268.864 142.459 269.377 141.869 269.724C141.28 270.07 140.638 270.241 139.991 270.223C137.2 270.223 135.273 267.213 135.273 263.478ZM136.813 263.478C136.813 266.244 138.044 268.402 140.071 268.402C142.097 268.402 143.398 266.244 143.398 263.478C143.398 260.713 142.127 258.543 140.071 258.543C138.015 258.543 136.813 260.7 136.813 263.478Z" fill="#E1DDDC"/>
<path d="M339.791 478.592C362.519 467.377 385.197 450.954 403.872 428.406C432.837 393.428 453.34 347.002 458.505 296.893C458.446 294.502 457.383 294.115 455.525 294.167C453.668 294.218 453.3 295.239 453.38 296.88C450.588 327.555 441.589 357.494 429.281 382.535C425.169 390.894 420.552 398.814 415.474 406.22C405.597 420.593 394.347 433.264 381.998 443.924C371.578 452.969 349.804 466.485 338.152 472.545L339.791 478.592ZM80.6392 310.499C86.4204 338.538 97.3472 370.971 110.012 393.712C123.446 417.805 140.306 438.324 159.679 454.158C173.449 465.459 188.364 474.205 203.992 480.143C206.078 480.905 206.744 475.052 203.992 474.07C166.801 459.676 133.107 427.553 111.512 386.657C100.436 365.647 90.5031 333.228 85.288 306.674L80.6392 310.499ZM340.516 34.6291C368.493 46.3176 393.814 66.8253 414.222 94.3256C421.682 104.275 426.55 113.901 432.311 125.401C439.276 139.46 444.878 154.585 448.989 170.432L455.406 168.197C440.635 117.377 409.613 70.1756 373.555 45.5476C363.75 38.5854 353.408 32.9855 342.702 28.8404C336.414 26.4887 337.487 27.1219 336.801 28.8404C336.116 30.5589 335.957 32.7297 340.516 34.6291ZM184.652 31.5539C179.029 34.6808 167.695 41.387 162.47 45.6898C143.676 61.1566 126.492 77.5279 111.721 99.4941C97.3472 120.711 85.0794 142.432 78.3446 169.476C77.4307 173.12 76.6162 176.802 75.8811 180.511C75.3149 183.198 77.8678 186.416 80.3412 180.511C83.3808 166.297 87.821 155.469 93.8009 142.961C107.281 114.845 123.84 89.4026 144.461 69.7751C155.547 59.1925 172.861 44.8499 185.387 37.8595" fill="#E1DDDC"/>
<path d="M448.175 158.932C449.377 162.731 449.486 167.047 448.8 166.685C447.728 166.129 442.215 160.224 433.672 156.232C430.861 154.939 427.94 154.603 428.199 156.516C428.308 157.666 429.51 158.79 430.93 159.888C432.351 160.987 434.069 162.02 435.132 162.718C440.747 166.138 446.024 170.429 450.847 175.497C453.757 178.572 455.098 179.722 455.684 179.529C456.27 179.335 456.807 177.849 457.78 174.541C459.187 169.393 460.267 164.103 461.009 158.725C461.944 152.341 462.261 145.83 461.952 139.343C461.744 134.886 461.098 132.534 460.522 131.358C458.694 127.96 458.078 131.591 457.721 136.384C457.562 138.827 457.383 141.553 457.224 143.905C457.065 146.256 456.896 148.337 456.717 149.5C455.803 157.653 454.363 166.504 453.529 164.876C453.211 164.23 452.406 161.387 450.767 156.49" fill="#E1DDDC"/>
<path d="M344.867 470.542C342.056 472.377 338.748 472.842 338.967 471.925C339.315 470.491 343.477 462.88 345.871 451.522C346.665 447.788 346.695 443.976 345.255 444.454C344.381 444.674 343.606 446.315 342.871 448.24C342.136 450.165 341.46 452.465 341.003 453.9C338.797 461.436 335.895 468.595 332.361 475.22C330.216 479.225 329.431 481.047 329.62 481.797C329.808 482.546 330.99 483.089 333.593 484.148C337.645 485.584 341.782 486.582 345.96 487.133C350.914 487.877 355.919 487.812 360.86 486.939C364.267 486.345 366.016 485.337 366.88 484.497C369.353 481.913 366.532 481.344 362.827 481.241L357.026 481.138C355.188 481.138 353.599 481.034 352.695 480.892C346.377 480.298 339.483 479.096 340.675 477.881C341.142 477.429 343.258 476.163 346.904 473.682" fill="#E1DDDC"/>
<path d="M86.6092 318.032C85.9238 314.039 85.2583 309.594 85.894 310.111C86.8874 310.886 92.6487 318.135 100.546 323.937C103.138 325.849 105.969 326.818 105.969 324.88C105.969 323.717 104.976 322.296 103.724 321.004C102.473 319.712 100.923 318.187 99.9597 317.257C94.8747 312.609 90.2447 307.172 86.1722 301.066C83.7087 297.371 82.5365 295.898 81.9306 296.001C81.3247 296.105 80.6095 297.41 79.2089 300.446C77.146 305.205 75.3853 310.174 73.9442 315.306C72.1749 321.392 71.0002 327.743 70.4476 334.209C70.0602 338.641 70.388 341.096 70.7953 342.389C72.1561 346.149 73.2389 342.712 74.2223 338.06C74.709 335.695 75.2156 333.085 75.7123 330.772C76.209 328.459 76.6162 326.47 76.944 325.371C78.9307 317.541 81.5134 309.155 82.1193 310.938C82.3478 311.649 82.765 314.621 83.7385 319.815" fill="#E1DDDC"/>
<path d="M179.496 40.056C182.417 38.5055 185.665 36.9032 185.387 37.7948C184.96 39.1903 180.42 47.8217 177.381 58.9211C176.387 62.5779 176.119 66.3638 177.579 66.0408C178.473 65.8986 179.337 64.3481 180.182 62.4874C180.985 60.7198 181.717 58.8998 182.377 57.0346C185.015 49.7415 188.328 42.8943 192.241 36.6448C194.625 32.8589 195.509 31.1145 195.36 30.3521C195.211 29.5898 194.069 28.892 191.536 27.6128C187.582 25.7671 183.519 24.3454 179.387 23.3617C174.481 22.1311 169.476 21.6971 164.487 22.0696C161.06 22.328 159.252 23.1679 158.348 23.9044C155.726 26.2819 158.507 27.096 162.202 27.5611L167.974 28.246C169.811 28.4527 171.391 28.6853 172.285 28.9179C178.543 30.1325 185.337 32.0319 184.086 33.1173C183.589 33.5179 181.404 34.5645 177.629 36.6836" fill="#E1DDDC"/>
<path d="M282.337 131.616C243.04 121.951 203.336 158.751 197.674 210.243L191.804 266.179C191.734 267.355 191.655 268.531 191.585 269.706C191.516 270.882 192.37 270.921 193.572 271.399L202.383 275.056L204.37 276.154C204.37 276.374 204.479 301.79 204.459 313.859C204.459 313.859 204.37 320.229 204.409 322.425C204.568 330.85 208.8 336.729 215.485 337.001C223.243 337.324 231.031 337.001 238.799 337.13C246.567 337.259 252.298 343.513 252.626 352.635C252.904 360.233 252.626 370.984 252.626 378.594H338.729C338.729 357.92 338.997 334.042 338.659 313.342C338.252 288.597 340.079 264.06 342.454 239.6C347.529 187.359 322.1 141.411 282.337 131.616Z" fill="#E5DEDB"/>
<path d="M276.009 260.261C272.225 260.261 269.284 259.331 267.576 257.522C267.072 257.027 266.666 256.384 266.391 255.644C266.116 254.905 265.981 254.091 265.996 253.271C266.152 250.798 267.017 248.491 268.42 246.81L267.149 247.611C261.417 251.113 256.381 252.857 251.742 252.935C245.782 253.025 240.438 250.35 236.971 245.479C233.504 240.608 231.587 233.075 231.607 223.513C231.607 210.475 234.676 198.549 240.179 189.698C239.448 188.837 238.828 187.829 238.342 186.713C238.301 186.607 238.279 186.489 238.279 186.37C238.279 186.252 238.301 186.134 238.342 186.028C239.971 180.86 244.769 179.451 248.275 178.818C249.388 178.611 250.49 178.43 251.603 178.275C253.895 176.922 256.312 175.962 258.795 175.42C262.996 169.166 267.923 164.036 271.191 165.018C273.347 165.664 274.43 168.675 274.4 173.985C274.4 174.257 274.4 174.528 274.4 174.799C276.515 174.195 278.671 173.866 280.837 173.817C283.673 171.784 286.747 170.374 289.936 169.644C298.19 168.171 302.452 169.217 302.978 172.861C303.316 175.278 301.717 178.34 299.313 181.247C301.741 183.421 303.977 185.939 305.978 188.754C306.773 189.853 307.508 190.977 308.183 192.114C310.452 193.682 312.439 195.857 314.014 198.497C316.21 202.374 317.133 208.576 314.67 212.891L314.441 213.279V213.447C314.441 222.066 311.044 230.839 305.432 236.938C303.604 238.92 301.604 240.615 299.472 241.99C299.888 243.211 300.105 244.531 300.108 245.867C300.028 251.552 295.449 255.79 286.499 258.491C283.065 259.593 279.546 260.187 276.009 260.261ZM271.708 245.091L270.933 245.944C269.125 247.96 267.258 250.415 267.198 253.322C267.189 253.903 267.288 254.478 267.487 254.998C267.686 255.517 267.979 255.967 268.341 256.307C270.476 258.581 276.287 259.964 286.111 256.992C294.346 254.511 298.727 250.66 298.796 245.867C298.79 244.766 298.608 243.679 298.26 242.675C294.505 244.854 290.509 246.246 286.419 246.797C282.077 247.556 277.659 247.008 273.506 245.195C272.917 245.178 272.317 245.143 271.708 245.091ZM241.113 190.706C235.779 199.272 232.839 210.85 232.809 223.526C232.809 232.726 234.488 239.768 237.845 244.458C241.203 249.149 246.139 251.5 251.752 251.423C256.281 251.345 261.02 249.704 266.652 246.254C267.536 245.725 268.39 245.169 269.225 244.6C268.663 244.426 268.109 244.21 267.566 243.954C265.875 245.467 264.047 246.699 262.122 247.624C255.586 250.751 248.404 249.11 244.242 243.541C240.269 238.217 239.494 230.322 239.554 224.624C239.712 213.643 242.427 202.983 247.341 194.052C245.111 193.503 242.991 192.364 241.113 190.706ZM248.613 194.375C243.643 203.159 240.891 213.733 240.736 224.637C240.736 230.025 241.391 237.558 245.087 242.443C249.517 248.36 256.619 248.567 261.685 246.151C263.269 245.388 264.784 244.405 266.205 243.218C265.738 242.937 265.284 242.622 264.844 242.275L263.97 242.494C258.01 243.903 253.421 242.908 250.351 239.509C249.266 238.261 248.393 236.731 247.789 235.017C247.185 233.304 246.864 231.445 246.845 229.56C246.744 225.178 247.776 220.879 249.775 217.349C249.558 212.458 250.005 207.554 251.096 202.865C250.583 200.157 250.915 197.295 252.02 194.905H251.921C250.739 194.776 249.646 194.608 248.613 194.375ZM276.426 244.626C279.659 245.512 282.982 245.695 286.26 245.169C290.202 244.67 294.057 243.362 297.684 241.293C295.772 237.644 293.182 234.684 290.154 232.687C289.149 233.743 288.036 234.613 286.846 235.271C284.565 239.566 281.248 242.749 277.42 244.316C277.142 244.407 276.784 244.523 276.456 244.626H276.426ZM273.307 243.334H273.397L273.665 243.476C274.823 243.403 275.971 243.147 277.082 242.714C280.09 241.497 282.77 239.194 284.81 236.072C284.348 236.202 283.88 236.293 283.41 236.344C282.512 236.446 281.608 236.407 280.718 236.227L280.112 236.77C278.035 239.119 275.816 241.245 273.476 243.127L273.307 243.334ZM268.748 242.766C269.314 242.972 269.887 243.14 270.466 243.269C270.049 242.959 269.642 242.623 269.235 242.275L268.748 242.766ZM270.218 241.228C270.784 241.706 271.37 242.132 271.966 242.52L272.781 241.874C274.827 239.755 276.933 237.739 279.088 235.801L278.532 235.594C276.254 237.265 273.871 238.682 271.41 239.832C271.042 240.336 270.645 240.814 270.248 241.254L270.218 241.228ZM266.632 241.719C266.87 241.874 267.119 242.003 267.367 242.145C267.645 241.887 267.933 241.616 268.211 241.331L268.092 241.228L266.632 241.719ZM249.924 219.753C248.595 222.673 247.934 226.026 248.017 229.418C248.029 231.087 248.309 232.734 248.84 234.254C249.37 235.773 250.139 237.132 251.096 238.243C253.828 241.267 257.98 242.119 263.424 240.944C263.043 240.541 262.682 240.11 262.341 239.652C261.677 238.853 261.131 237.903 260.732 236.848C258.09 236.495 255.629 234.944 253.778 232.467C252.474 230.559 251.517 228.293 250.977 225.839C250.699 225.671 250.421 225.477 250.143 225.27C250.068 225.211 250.004 225.132 249.954 225.038C249.905 224.945 249.871 224.839 249.855 224.727C249.839 224.615 249.844 224.5 249.868 224.39C249.892 224.28 249.935 224.179 249.994 224.094L250.47 223.358C250.253 222.194 250.08 221.017 249.954 219.83L249.924 219.753ZM262.152 237.016C262.444 237.58 262.777 238.108 263.145 238.592C263.723 239.319 264.355 239.968 265.033 240.53C265.655 240.366 266.281 240.173 266.91 239.949C266.049 238.97 265.239 237.917 264.486 236.796C263.725 236.974 262.955 237.073 262.182 237.093L262.152 237.016ZM291.128 231.498C294.231 233.615 296.867 236.729 298.786 240.543C300.848 239.226 302.782 237.595 304.548 235.685C306.98 233.13 308.99 229.962 310.458 226.372C311.926 222.781 312.821 218.842 313.09 214.791C311.363 216.405 309.376 217.487 307.279 217.957C305.995 218.314 304.694 218.569 303.386 218.719C303.331 218.842 303.252 218.945 303.157 219.016C300.508 220.877 297.859 222.772 295.21 224.702C294.942 225.309 294.644 225.916 294.336 226.523C293.426 228.358 292.36 230.052 291.158 231.576L291.128 231.498ZM265.957 236.46C266.717 237.539 267.537 238.545 268.41 239.471C269.215 239.173 270.019 238.837 270.804 238.463C272.139 236.838 273.4 235.112 274.579 233.294C274.052 232.898 273.541 232.467 273.049 232.002C270.924 234.06 268.517 235.573 265.957 236.46ZM275.652 234.018C274.989 235.095 274.304 236.102 273.595 237.041C274.767 236.382 275.93 235.659 277.062 234.871C276.853 234.767 276.655 234.651 276.446 234.522C276.238 234.393 275.91 234.237 275.652 234.057V234.018ZM261.616 235.452C262.277 235.52 262.941 235.52 263.602 235.452C263.048 234.532 262.53 233.574 262.053 232.584C261.766 233.045 261.581 233.598 261.516 234.186C261.485 234.625 261.519 235.068 261.616 235.491V235.452ZM252.417 226.627C252.904 228.422 253.66 230.074 254.642 231.485C256.182 233.522 258.191 234.847 260.364 235.258C260.318 234.83 260.318 234.395 260.364 233.966C260.481 232.911 260.861 231.934 261.447 231.188C260.851 229.824 260.314 228.417 259.838 226.976C257.372 227.507 254.851 227.401 252.417 226.666V226.627ZM263.046 231.472C263.65 232.739 264.314 233.956 265.033 235.116C267.545 234.358 269.912 232.937 271.986 230.943C271.519 230.439 271.072 229.922 270.645 229.379C269.235 229.508 267.834 229.702 266.453 229.986C265.254 230.21 264.097 230.727 263.046 231.511V231.472ZM282.347 234.858C282.677 234.884 283.009 234.884 283.34 234.858C284.287 234.745 285.217 234.458 286.101 234.005C286.56 233.139 286.972 232.232 287.333 231.291L286.896 231.149C285.356 232.377 283.847 233.617 282.347 234.896V234.858ZM280.012 234.483L280.251 234.548L280.867 233.785L280.012 234.483ZM276.436 232.777L276.953 233.1C277.449 233.398 277.946 233.669 278.433 233.889C279.97 232.728 281.456 231.456 282.883 230.077C281.403 229.767 279.903 229.534 278.413 229.392C277.847 230.426 277.251 231.446 276.625 232.467L276.436 232.777ZM288.505 231.679C288.386 232.002 288.257 232.312 288.128 232.622C288.416 232.39 288.684 232.144 288.952 231.886L288.505 231.679ZM274.052 230.943C274.469 231.33 274.907 231.692 275.354 232.028L275.681 231.498C276.138 230.762 276.565 230.025 276.983 229.276H275.632C275.095 229.87 274.569 230.439 274.052 230.981V230.943ZM284.82 230.529L284.244 231.408L285.237 230.62L284.82 230.529ZM289.002 230.245C289.31 230.387 289.648 230.568 289.995 230.787C291.112 229.473 292.112 227.999 292.975 226.394C291.734 227.312 290.492 228.255 289.25 229.211C289.211 229.599 289.111 229.999 289.002 230.284V230.245ZM261.109 226.717C261.516 227.893 261.953 229.03 262.43 230.129C263.64 229.244 264.968 228.67 266.344 228.436C267.437 228.216 268.539 228.048 269.642 227.919C269.103 227.133 268.602 226.304 268.142 225.438L261.417 226.666L261.109 226.717ZM272.383 229.302C272.602 229.547 272.821 229.793 273.049 230.025L273.784 229.263L272.383 229.302ZM285.684 229.211L286.678 229.495L288.307 228.203C288.596 227.098 288.806 225.961 288.932 224.805C287.942 226.38 286.856 227.849 285.684 229.198V229.211ZM279.198 227.919C280.867 228.113 282.525 228.397 284.164 228.785L284.691 228.203C284.969 227.738 285.237 227.26 285.496 226.782C286.343 225.224 287.106 223.592 287.78 221.898L281.472 223.035C280.797 224.689 280.042 226.317 279.198 227.945V227.919ZM276.883 227.725L277.817 227.79C278.612 226.291 279.337 224.805 279.992 223.306C279.03 224.872 277.991 226.357 276.883 227.751V227.725ZM269.483 225.205C269.999 226.117 270.564 226.98 271.172 227.79C272.503 227.686 273.844 227.648 275.145 227.673C276.2 226.409 277.195 225.063 278.125 223.642L269.483 225.205ZM290.254 222.376C290.256 223.94 290.109 225.498 289.817 227.014C291.346 225.852 292.876 224.706 294.406 223.577C294.847 222.573 295.244 221.538 295.598 220.476L290.721 221.355C290.572 221.73 290.423 222.066 290.254 222.402V222.376ZM251.95 224.831C254.35 225.806 256.893 226.028 259.371 225.477C258.718 223.237 258.2 220.934 257.821 218.59C257.682 217.724 257.553 216.871 257.444 216.006C255.457 218.525 253.56 221.174 251.762 223.875C251.821 224.211 251.881 224.508 251.95 224.831ZM258.487 214.726C258.636 215.876 258.805 217.052 258.993 218.267C259.379 220.658 259.924 223.002 260.622 225.27L261.248 225.167L267.407 224.043C266.031 221.135 265.097 217.911 264.655 214.545C264.596 214.132 264.546 213.68 264.506 213.189C263.204 212.941 261.914 212.596 260.642 212.155C259.917 212.982 259.202 213.848 258.487 214.713V214.726ZM265.738 213.434C265.738 213.718 265.798 214.016 265.837 214.326C266.286 217.723 267.267 220.964 268.718 223.849L279.317 221.923C280.965 219.169 282.303 216.124 283.29 212.879C282.704 212.426 282.128 211.948 281.572 211.444L281.314 211.212C276.308 213.42 270.989 214.162 265.738 213.382V213.434ZM297.008 220.257C296.81 220.903 296.591 221.549 296.353 222.208L299.77 219.753L297.008 220.257ZM251.037 217.827C251.119 219.224 251.262 220.613 251.464 221.988C253.311 219.249 255.228 216.626 257.235 214.106C257.156 213.357 257.076 212.633 257.016 211.897C255.12 213.063 253.391 214.641 251.901 216.561C251.573 216.962 251.315 217.388 251.007 217.827H251.037ZM284.562 213.693C283.941 216.329 283.15 218.892 282.198 221.355L288.456 220.218C288.575 219.895 288.684 219.572 288.793 219.249C288.697 218.745 288.577 218.249 288.436 217.763C288.213 216.995 287.93 216.259 287.591 215.566C286.529 215.011 285.515 214.377 284.532 213.693H284.562ZM292.061 217.569C291.885 218.314 291.673 219.043 291.426 219.753L296.144 218.9L296.224 218.629C294.813 218.365 293.417 217.989 292.042 217.504L292.061 217.569ZM290.075 219.455V219.675C290.388 218.842 290.651 217.978 290.86 217.091H290.73C290.505 217.849 290.28 218.616 290.055 219.391L290.075 219.455ZM297.833 217.285C300.936 217.64 304.062 217.396 307.111 216.561C309.388 216.128 311.511 214.808 313.2 212.775C313.081 206.315 311.034 199.608 307.349 193.393C306.356 192.67 305.362 192.011 304.369 191.39C301.276 189.502 298.11 187.824 294.883 186.364L293.144 187.256L292.578 187.682C292.801 189.077 292.824 190.514 292.648 191.92C295.138 194.541 296.982 198.054 297.952 202.025C299.036 207.003 298.977 212.285 297.783 217.22L297.833 217.285ZM292.379 215.993C293.773 216.469 295.19 216.823 296.621 217.052C297.777 212.31 297.826 207.229 296.76 202.451C295.917 199.041 294.371 195.997 292.29 193.652C292.108 194.428 291.879 195.184 291.605 195.913C291.664 196.184 291.714 196.443 291.764 196.701C292.529 200.936 292.664 205.322 292.161 209.622C292.618 211.696 292.676 213.883 292.33 215.993H292.379ZM289.33 216.419L289.509 216.962L289.618 216.548L289.33 216.419ZM251.901 205.177C251.243 208.581 250.932 212.083 250.977 215.592L251.066 215.463C252.707 213.334 254.628 211.605 256.738 210.359C254.741 209.321 253.036 207.513 251.851 205.177H251.901ZM291.138 215.514C291.138 215.334 291.187 215.166 291.207 214.985C291.168 215.204 291.128 215.372 291.048 215.54L291.138 215.514ZM288.416 214.222C288.932 214.494 289.459 214.752 289.995 214.985C290.406 213.228 290.721 211.436 290.939 209.622C290.169 206.796 288.675 204.4 286.707 202.839C286.489 203.028 286.27 203.209 286.052 203.381C286.006 205.702 285.739 208.007 285.257 210.243C286.488 211.316 287.545 212.695 288.366 214.3L288.416 214.222ZM258.179 211.16C258.179 211.677 258.268 212.194 258.318 212.711L259.311 211.535L259.093 211.457L258.298 211.095L258.179 211.16ZM284.919 212.077L285.674 212.594C285.446 212.336 285.207 212.103 284.959 211.871L284.919 212.077ZM265.718 211.716C270.596 212.464 275.541 211.847 280.221 209.907C279.814 209.493 279.436 209.067 279.079 208.615C278.363 208.408 277.648 208.253 276.953 208.124C273.394 209.365 269.698 209.802 266.026 209.416C265.797 210.174 265.676 210.979 265.668 211.793L265.718 211.716ZM261.745 210.811C262.649 211.095 263.563 211.328 264.476 211.509C264.494 210.748 264.584 209.993 264.745 209.261C264.387 209.183 264.029 209.106 263.662 209.002L263.294 209.106L261.745 210.811ZM282.724 210.372L283.717 211.212C283.745 211.123 283.768 211.033 283.787 210.94C283.479 210.708 283.161 210.501 282.843 210.307L282.724 210.372ZM310.011 195.525C312.319 200.051 313.772 205.222 314.253 210.617C315.524 207.038 314.67 202.464 312.971 199.453C312.128 197.991 311.128 196.695 310.001 195.603L310.011 195.525ZM260.076 210.23L260.304 210.32L260.553 210.036L260.076 210.23ZM258 209.299L258.228 209.416C259.204 208.917 260.198 208.486 261.208 208.124C260.047 207.609 258.926 206.951 257.861 206.159C257.881 207.309 257.93 208.343 257.99 209.325L258 209.299ZM283.708 209.106L284.125 209.39C284.372 207.757 284.525 206.103 284.582 204.441C283.296 205.29 281.968 206.028 280.608 206.65L280.459 206.728C281.483 207.283 282.478 207.921 283.439 208.64C283.51 208.701 283.57 208.781 283.614 208.875C283.659 208.969 283.687 209.074 283.698 209.183L283.708 209.106ZM255.576 207.723C255.962 208.038 256.36 208.327 256.768 208.589C256.709 207.452 256.669 206.327 256.649 205.203L256.381 204.971C256.149 205.901 255.877 206.844 255.566 207.8L255.576 207.723ZM271.887 207.788C270.993 207.788 270.228 207.865 269.662 207.93L268.668 208.046C269.74 208.064 270.811 208.003 271.877 207.865L271.887 207.788ZM257.831 204.35C259.45 205.677 261.225 206.65 263.086 207.232C266.33 203.77 269.741 200.58 273.297 197.683C267.814 196.998 261.755 197.683 257.831 202.516C257.821 203.2 257.811 203.821 257.821 204.428L257.831 204.35ZM274.857 198.355C271.527 200.995 268.322 203.895 265.261 207.038L265.688 206.948C267.963 203.317 272.562 203.963 274.013 204.273C274.886 204.456 275.751 204.697 276.605 204.997C276.278 204.347 275.986 203.67 275.731 202.968C275.223 201.541 274.923 200.003 274.847 198.433L274.857 198.355ZM252.308 202.865C252.308 203.033 252.397 203.201 252.447 203.368C252.9 204.746 253.614 205.951 254.523 206.87C255.715 203.11 256.639 198.665 255.954 195.241H254.841C253.801 197.664 252.952 200.218 252.308 202.865ZM287.661 201.96C289.053 203.193 290.226 204.802 291.098 206.676C291.262 203.73 291.108 200.768 290.641 197.877C290.257 198.613 289.828 199.309 289.36 199.957C288.842 200.669 288.288 201.334 287.701 201.947L287.661 201.96ZM271.619 205.668C270.348 205.622 269.087 205.958 267.933 206.65L269.523 206.457C271.726 206.231 273.94 206.265 276.138 206.56C275.363 206.302 274.569 206.082 273.764 205.901C273.068 205.749 272.364 205.667 271.658 205.656L271.619 205.668ZM278.512 205.849L278.691 205.927C279.237 205.707 279.744 205.475 280.171 205.268C281.682 204.561 283.147 203.697 284.552 202.684C284.552 202.231 284.552 201.792 284.552 201.392C282.188 200.011 279.697 199.03 277.142 198.471L276.029 198.226C276.076 199.665 276.339 201.079 276.804 202.386C277.254 203.641 277.843 204.803 278.552 205.836L278.512 205.849ZM285.883 200.539L286.578 201.056C287.262 200.406 287.9 199.68 288.485 198.885C289.17 197.951 289.758 196.904 290.234 195.771C289.834 193.983 289.298 192.252 288.634 190.602L288.029 190.279C287.582 190.473 287.154 190.641 286.767 190.757C286.38 190.874 285.694 191.08 285.138 191.21L284.015 191.894C285.042 194.6 285.688 197.524 285.923 200.526L285.883 200.539ZM258.069 195.28C257.95 197.076 257.871 198.807 257.821 200.448C262.42 195.732 269.105 195.422 274.847 196.404C274.945 195.371 275.167 194.364 275.503 193.419C269.763 194.721 263.945 195.339 258.119 195.267L258.069 195.28ZM276.853 196.843L277.32 196.947C279.738 197.485 282.1 198.378 284.363 199.608C284.124 197.211 283.604 194.876 282.823 192.683C280.857 193.962 278.86 195.357 276.903 196.83L276.853 196.843ZM253.301 195.034C252.709 196.244 252.301 197.591 252.099 199.001C252.517 197.652 252.988 196.333 253.51 195.047L253.301 195.034ZM277.042 193.083C276.672 193.802 276.396 194.597 276.228 195.435C277.877 194.143 279.545 193.019 281.254 191.907C279.893 192.334 278.492 192.734 277.082 193.083H277.042ZM258.169 193.703C264.261 193.786 270.346 193.102 276.337 191.662C276.786 190.936 277.315 190.301 277.906 189.775C276.174 188.089 274.881 185.753 274.201 183.082C272.461 182.616 270.67 182.568 268.917 182.94C267.208 183.87 265.5 184.762 263.771 185.602C262.699 186.137 261.592 186.544 260.463 186.816L259.47 187.579C259.192 187.785 258.924 187.992 258.665 188.225V188.561L259.589 188.664C261.989 189.035 264.407 189.147 266.821 189C266.975 188.988 267.127 189.054 267.246 189.183C267.365 189.313 267.441 189.496 267.458 189.696C267.476 189.896 267.434 190.098 267.342 190.259C267.249 190.42 267.112 190.529 266.96 190.563C264.125 191.127 261.265 191.455 258.397 191.545C258.338 192.269 258.268 192.993 258.268 193.703H258.169ZM256.818 193.703H256.967C257.017 193.006 257.066 192.295 257.126 191.584H256.54C256.43 191.778 256.321 191.985 256.222 192.192C256.476 192.659 256.696 193.156 256.877 193.677L256.818 193.703ZM290.422 191.946C290.601 192.502 290.78 193.057 290.939 193.626C291.019 193.29 291.098 192.954 291.158 192.605C290.979 192.347 290.73 192.127 290.482 191.92L290.422 191.946ZM254.086 193.548H254.146L254.335 193.135C254.295 193.251 254.225 193.393 254.146 193.522L254.086 193.548ZM249.378 192.993C250.192 193.148 251.047 193.277 251.95 193.367L252.676 193.432C253.031 192.763 253.419 192.124 253.838 191.52C252.626 191.52 251.513 191.339 250.51 191.21C250.166 191.778 249.808 192.364 249.437 192.967L249.378 192.993ZM241.828 189.53C243.702 191.144 245.818 192.223 248.037 192.695C248.374 192.11 248.722 191.541 249.08 190.99C246.884 190.589 245.454 190.06 245.196 189.569C245.137 189.425 245.107 189.266 245.107 189.103C245.107 188.941 245.137 188.782 245.196 188.638C245.404 188.16 245.772 187.837 248.702 188.057C249.447 188.057 250.192 188.173 250.937 188.315C251.563 187.462 252.209 186.622 252.924 185.821C253.421 184.723 253.987 183.573 254.603 182.397C254.824 181.88 255.087 181.395 255.387 180.95C255.676 180.42 255.974 179.903 256.281 179.374C254.801 179.49 253.301 179.645 251.861 179.852C248.065 182.125 244.681 185.414 241.928 189.504L241.828 189.53ZM279.098 190.68C278.916 190.807 278.74 190.949 278.572 191.106L279.426 190.861L279.098 190.68ZM289.618 189.504C290.225 189.885 290.812 190.316 291.376 190.796C291.428 189.999 291.405 189.196 291.307 188.406C290.79 188.806 290.224 189.168 289.677 189.478L289.618 189.504ZM295.578 185.059C298.695 186.481 301.755 188.107 304.746 189.93L305.253 190.253L304.975 189.866C302.961 187.042 300.709 184.523 298.26 182.358C297.417 183.306 296.539 184.199 295.628 185.033L295.578 185.059ZM254.583 189.943H255.03L255.149 189.788H254.404L254.583 189.943ZM280.797 189.736C281.098 189.831 281.403 189.901 281.711 189.943C281.641 189.788 281.562 189.646 281.482 189.491L280.797 189.736ZM282.923 189.22L283.141 189.685L284.462 189.22C283.95 189.172 283.435 189.176 282.923 189.233V189.22ZM275.721 183.612C276.4 185.801 277.601 187.649 279.148 188.884C279.641 188.583 280.153 188.336 280.678 188.147C279.867 186.87 278.9 185.775 277.817 184.904C277.155 184.382 276.453 183.953 275.721 183.625V183.612ZM239.534 186.274C239.928 187.094 240.406 187.842 240.954 188.496C243.107 185.307 245.631 182.578 248.434 180.407H248.325C243.507 181.273 240.686 183.16 239.534 186.287V186.274ZM254.046 188.225C254.841 188.225 255.656 188.225 256.49 188.341C256.897 187.928 257.315 187.527 257.742 187.152L257.851 186.997C256.77 186.915 255.732 186.416 254.871 185.563C254.503 185.963 254.146 186.377 253.788 186.855C253.431 187.333 253.371 187.824 253.172 188.302L254.046 188.225ZM283.747 187.617C284.881 187.617 286.01 187.812 287.105 188.199L287.492 188.044C286.361 185.834 284.993 183.845 283.429 182.139C281.165 181.493 278.883 180.95 276.585 180.511C278.748 182.497 280.639 184.944 282.178 187.747C282.367 187.747 282.565 187.682 282.764 187.669C282.963 187.656 283.419 187.63 283.747 187.63V187.617ZM285.734 182.837C286.819 184.274 287.791 185.85 288.634 187.54H288.704L290.899 186.429C290.677 185.696 290.387 185.002 290.035 184.361C288.654 183.806 287.214 183.315 285.774 182.849L285.734 182.837ZM291.744 185.007C291.853 185.279 291.942 185.576 292.032 185.86L292.876 185.472L291.744 185.007ZM255.834 184.529C256.772 185.251 257.859 185.571 258.944 185.447C259.341 184.93 259.748 184.426 260.175 183.935C261.753 182.122 263.475 180.532 265.311 179.193C264.407 179.193 263.493 179.128 262.589 179.128C260.189 180.568 257.933 182.386 255.874 184.542L255.834 184.529ZM290.79 182.992C291.936 183.431 293.068 183.896 294.187 184.387C295.22 183.469 296.214 182.482 297.167 181.428C295.248 179.854 293.203 178.554 291.068 177.552C287.828 176.062 284.412 175.328 280.976 175.381L280.171 175.911C283.102 176.583 288.068 178.379 290.83 183.005L290.79 182.992ZM267.715 179.335C265.586 180.643 263.585 182.279 261.755 184.206C263.921 182.886 266.212 181.948 268.569 181.415C269.562 180.872 270.556 180.304 271.549 179.722C270.304 179.576 269.039 179.451 267.754 179.348L267.715 179.335ZM256.023 182.268C256.023 182.333 255.954 182.397 255.924 182.475C257.185 181.245 258.513 180.135 259.897 179.154H259.579C258.222 179.79 257.011 180.866 256.063 182.281L256.023 182.268ZM275.135 181.751C275.483 181.867 275.82 182.01 276.128 182.165C275.741 181.803 275.354 181.441 274.946 181.105L275.135 181.751ZM283.916 180.692C285.446 181.131 286.966 181.609 288.476 182.139C286.029 179.73 283.169 178.134 280.141 177.487C281.498 178.377 282.777 179.456 283.956 180.705L283.916 180.692ZM272.076 181.144C272.655 181.17 273.233 181.248 273.804 181.376C273.724 181.002 273.645 180.614 273.585 180.239L272.076 181.144ZM283.35 173.908C286.136 174.135 288.884 174.866 291.515 176.079C293.842 177.181 296.067 178.616 298.151 180.356C300.425 177.655 301.925 174.942 301.677 173.146C301.508 171.957 300.028 169.411 289.976 171.194C287.691 171.687 285.473 172.606 283.39 173.921L283.35 173.908ZM275.87 178.805C277.589 179.115 279.307 179.49 281.016 179.903C279.912 179.026 278.744 178.295 277.529 177.72C277.012 178.107 276.466 178.469 275.91 178.818L275.87 178.805ZM271.897 177.203C272.354 177.448 272.801 177.707 273.238 177.991C273.238 177.578 273.158 177.164 273.128 176.699C272.791 176.906 272.383 177.022 271.966 177.216L271.897 177.203ZM274.33 176.686C274.33 177.099 274.4 177.526 274.45 177.978L275.83 177.099C275.36 176.931 274.882 176.797 274.4 176.699L274.33 176.686ZM257.444 177.319L256.003 177.784L257.205 177.707L257.444 177.319ZM265.609 177.642C266.235 177.642 266.87 177.642 267.496 177.758L268.271 177.293L267.377 177.048C266.801 177.229 266.215 177.422 265.639 177.655L265.609 177.642ZM259.281 176.867L258.795 177.616H259.301C260.127 177.213 260.973 176.885 261.834 176.634L262.162 176.531C261.208 176.585 260.256 176.701 259.311 176.88L259.281 176.867ZM263.016 174.942C264.418 174.94 265.817 175.096 267.198 175.407H267.268H267.645C269.437 174.946 271.267 174.798 273.089 174.967C273.089 174.644 273.089 174.334 273.089 174.011C273.089 170.936 272.721 167.15 270.814 166.582C268.36 165.845 264.278 169.825 260.503 175.135C261.367 175.006 262.241 174.955 263.046 174.955L263.016 174.942Z" fill="#3A173C"/>
</g>
<defs>
<clipPath id="clip0_1_80">
<rect width="510" height="521" fill="white"/>
</clipPath>
</defs>
</svg>
