<?xml version="1.0" encoding="utf-8"?>
<!-- Generator: Adobe Illustrator 28.0.0, SVG Export Plug-In . SVG Version: 6.00 Build 0)  -->
<svg version="1.1" id="_Слой_2" xmlns="http://www.w3.org/2000/svg" xmlns:xlink="http://www.w3.org/1999/xlink" x="0px"
	 y="0px" viewBox="0 0 1128 714" preserveAspectRatio="none" style="enable-background:new 0 0 1128 714;" xml:space="preserve">
<style type="text/css">
	.st0{fill:#3A173C;}
</style>
<g id="_Слой_1-2">
	<path class="st0" d="M885.1,651.9c-75.6,45.4-140.8,61.6-233,62.1c-79,0.4-163.4-13.9-247.7-37c-72.2-19.8-144.3-46.2-212.7-75.6
		c-68.8-29.5-133.9-62-191.7-93.7L0,0c109.4,80.6,123.8,84,176.2,85.4c56.8,1.4,111.9-17.1,166.9-31.8s113.6-25.6,168-9.2
		c75.1,22.7,80.8,51.7,140.9,53.2c40.1,1,51-1.3,144.8-51.1c51-27.1,90.9-47.4,155.7-46c44.5,0,94.5,21.5,127,61
		c24.7,30,45.7,84.3,47.9,133.1c2.4,50.4-3,107.9-23.9,171.2c-15.9,48.1-36.7,99.8-88.5,165.6C988.6,565.1,925.1,627.9,885.1,651.9z
		"/>
</g>
</svg>
