<?xml version="1.0" encoding="UTF-8"?><svg id="_Слой_2" xmlns="http://www.w3.org/2000/svg" width="253" height="253" viewBox="0 0 253 253"><defs><style>.cls-1{fill:#e1dddc;stroke-width:0px;}</style></defs><g id="_Слой_1-2"><g id="group_circle"><path class="cls-1" d="m107.16,1.54c-20.07,3.01-40.25,10.05-55.78,23.68-12.3,10.77-23.34,21.95-32.14,35.86-8.6,13.48-15.41,28.62-17.88,44.49-2.12,13.4-1.58,27.19.5,40.54,3.92,25.12,17.86,50.15,35.72,68.2,11.83,11.95,25.9,21.48,41.32,28.18,20.95,9.05,44.67,12.71,67.26,9.18,68.9-10.78,116.07-75.54,105.31-144.56-1.45-9.29-3.93-18.35-7.37-27.06-12.83-32.51-43.65-61.93-76.78-73.24C149.64.66,130.59-1.32,112,.85c-1.58.18-3.21.44-4.84.69Zm38.52,246.58c-38.79,6.54-80.91-9.59-107.61-37.98C9.37,179.72-7.07,127.53,9.96,87.4c7.35-17.24,17.14-33.38,30.38-46.71C65.22,15.75,99.42.81,134.73,3.73c24,2.01,47.1,11.19,66.35,25.61,6.29,4.71,10.65,9.53,15.84,15.35,16.03,17.87,25.26,40.55,30.36,63.81,4.7,21.58.92,47.11-7.97,67.33-2.28,5.12-4.92,10.09-7.93,14.78-5.93,9.17-12.99,17.52-21.01,24.87-15.74,14.46-35.22,25.15-55.77,30.64-2.94.86-5.92,1.53-8.92,2Z"/><path class="cls-1" d="m142.57,22.41c-16.7-2.75-34.51-2.25-50.29,4.59-12.49,5.42-24.06,11.45-34.6,20.25-10.23,8.52-19.46,18.8-25.48,30.8-5.12,10.12-8.12,21.18-9.85,32.3-3.27,20.94,1.45,44.33,11.08,63.2,6.34,12.52,15.11,23.68,25.64,32.9,14.37,12.5,32.18,21.46,51.05,24.41,57.47,9,111.31-30.36,120.29-87.94,1.2-7.72,1.56-15.57,1.03-23.36-1.96-29.06-18.97-60.27-42.41-77.68-12.53-9.33-27.12-15.71-42.38-18.7-1.43-.29-2.72-.56-4.09-.77Zm-32.06,205.57c-32.45-4.68-61.76-28.23-75.8-57.51-15.02-31.51-14.8-77.11,8.88-104.57,10.2-11.81,22.04-22.09,35.96-29.36,26.13-13.54,57.06-16.67,84.39-5.29,18.53,7.73,34.54,20.89,46.11,37.24,3.78,5.35,6.03,10.26,8.72,16.18,8.19,18.24,9.77,38.59,7.89,58.34-1.73,18.36-11.22,37.65-23.41,51.43-3.08,3.47-6.47,6.76-10.08,9.75-6.98,5.74-14.77,10.62-22.99,14.43-16.21,7.45-34.37,11.04-52.02,10.09-2.59-.14-5.09-.39-7.65-.73Z"/><path class="cls-1" d="m113.97,44.31c-14.41,2.86-28.25,9.31-39.8,18.09-22.48,17.12-34.38,49.41-30.06,77.09,4.26,27.35,26.08,53.96,51.54,64.52,12.74,5.31,26.78,7.4,40.51,5.79,1.19-.12,2.3-.29,3.47-.48,21.36-3.34,40.69-16.62,53.62-33.66,25.31-33.32,21.06-82.05-9.76-110.6-13.92-12.9-33.84-22.25-53.07-22.39-5.49-.01-11.01.58-16.47,1.64Zm25.28,162.13c-7.45,1.17-15.15,1.1-23-.35-34.44-6.34-62.05-31.98-67.56-67.31-3.1-19.89,1.46-40.38,12.65-57.01,10.43-15.51,26.93-26.8,44.69-32.19,14.18-4.3,29.74-4.92,44.03-.79,30.4,8.78,50.05,35.2,54.78,65.55,4.35,27.87-6.69,55.34-27.22,73.83-10.63,9.51-24.26,16.06-38.36,18.27Z"/><path class="cls-1" d="m135.57,68.26c-11.01-1.45-23.55.87-33.69,5.38-15.53,6.95-28.12,21.14-32.5,37.67-4.02,15.05-.57,31.55,7.4,44.79,5.69,9.4,13.7,17.69,23.38,22.96,21.14,11.62,51.85,5.97,68.44-11.14,7.57-7.8,12.98-17.61,15.37-28.22.27-1.3.54-2.6.75-3.97,3.5-22.44-8.89-50.25-29.3-60.95-6.41-3.48-13.1-5.67-19.86-6.53Zm-17.71,112.71c-7.01-.96-15.29-5.34-21.18-9.21-6.86-4.49-12.95-10.47-17.13-17.56-4.92-8.34-7.29-18.03-7.19-27.67.04-10.99,2.54-23.13,8.95-32.11,14.04-19.65,36.53-24.44,59.27-21.02,14.05,2.13,25.45,12.29,32.26,24.35,6.4,11.32,10.88,22.88,8.45,35.91-2.3,12.17-8.94,23-16.86,32.15-6.93,7.96-19.07,12.9-29.37,14.57-5.47.75-11.52,1.35-17.22.59Z"/><path class="cls-1" d="m121.53,95.1c-5.55.87-10.92,3.32-15.26,6.81-23.91,19.16-4.85,60.68,25.06,56,15.41-2.41,25.27-14.28,26.15-29.63,1.12-19.81-16.49-36.23-35.95-33.18Zm9.07,58.57c-6.01.94-12.11.02-17.14-3.48-3.75-2.56-6.72-6.19-9.18-9.96-5.64-8.7-7.06-17.39-1.9-26.78,7.29-13.34,21.26-17.67,35.13-12.8,9.2,3.25,14.4,12.09,15.9,21.71,2.34,14.98-7.86,28.98-22.81,31.32Z"/></g></g></svg>