<svg width="70" height="103" viewBox="0 0 70 103" fill="none" xmlns="http://www.w3.org/2000/svg">
<g clip-path="url(#clip0_1_360)">
<path d="M46.3323 46.2802C46.5336 46.3804 46.6342 46.4806 46.8356 46.5808C47.0369 46.681 47.0369 46.681 47.0369 46.7812C47.0369 46.8814 47.2382 46.8814 47.2382 46.9816C47.5402 47.1819 47.8421 47.4825 48.1441 47.6829C48.4368 47.8876 48.7067 48.1227 48.9493 48.3843C49.1507 48.5847 49.4526 48.7851 49.6539 48.9855L50.2579 49.5867L50.5598 49.8872L50.7612 50.0876L51.4658 50.789L51.5664 50.8892C51.7677 50.5886 51.969 50.3882 52.1704 50.0876C52.7743 49.2861 53.3782 48.3843 53.8815 47.5827L54.2841 46.8814C54.4399 46.6605 54.5747 46.4257 54.6868 46.18C54.9887 45.7792 55.9953 43.9757 56.1966 43.5749C56.3979 43.1741 56.6999 42.6731 57.0019 42.2723C57.3038 41.8715 61.4307 34.2566 62.6386 31.4511C64.6902 27.4451 66.245 23.2058 67.2688 18.8263C69.1813 10.8106 68.98 9.10729 69.0806 7.30375C69.1813 5.50021 66.3629 4.09746 65.5577 7.20355C63.4439 15.8205 62.538 19.5277 55.8946 31.6515C48.9493 44.0759 46.3323 46.18 46.3323 46.2802Z" fill="#DFDBDA"/>
<path d="M39.4877 42.6732C39.8903 42.8736 40.0916 42.8736 40.5949 43.074C40.8215 43.1923 41.0571 43.2928 41.2995 43.3746L41.9034 43.6752L42.5074 43.9758L43.1113 44.2764L43.7152 44.577L44.3192 44.8776L44.9231 45.1782L45.5271 45.4787C45.5538 45.4787 45.5794 45.4893 45.5982 45.5081C45.6171 45.5269 45.6277 45.5524 45.6277 45.5789C46.028 45.1015 46.3978 44.5995 46.7349 44.076C49.8553 39.7675 55.3914 30.7499 57.0019 26.9424C59.7768 21.3073 61.7097 15.2988 62.7393 9.10743C63.1955 6.92298 63.5315 4.71537 63.7459 2.49446C64.0478 -0.31104 60.6255 -0.912219 59.9209 2.29407C58.3104 9.70861 56.4986 15.4198 49.9559 27.6438C45.829 35.2587 39.689 42.2725 39.4877 42.6732Z" fill="#DFDBDA"/>
<path d="M67.6715 31.5516C66.3629 31.3512 64.7524 32.7539 64.3498 33.1547C62.4373 35.0584 59.7196 39.8679 59.4176 40.2686C58.8677 41.0209 58.3955 41.8265 58.0084 42.6734C57.8071 43.0741 57.5052 43.4749 57.3038 43.9759C57.1025 44.4769 56.8006 44.8777 56.5993 45.2785C56.096 46.1802 55.5927 47.082 54.9888 47.9838C54.833 48.2047 54.6982 48.4395 54.5861 48.6851C54.4855 48.8855 54.2842 49.0859 54.1835 49.2863C53.1175 50.864 51.8674 52.3102 50.4592 53.5948C49.9286 54.1085 49.3563 54.5777 48.7481 54.9975C47.9428 55.4985 47.2382 55.8993 47.2382 55.8993C47.685 55.5829 48.0907 55.2127 48.4461 54.7971C48.9494 54.1959 49.9559 53.0938 50.5599 52.3924C50.9625 51.8914 50.7612 52.192 51.1638 51.691C48.53 48.6346 45.2695 46.1748 41.6014 44.4769L40.9975 44.1763C40.7709 44.058 40.5353 43.9575 40.2929 43.8757C39.8903 43.6753 39.387 43.5751 38.9844 43.3747L38.6824 43.2745L38.3804 43.1743C38.1496 43.0942 37.9144 43.0273 37.6758 42.9739C37.2732 42.8738 36.7699 42.6734 36.3673 42.5732C36.1365 42.4931 35.9012 42.4261 35.6627 42.3728C35.5621 42.3728 35.4614 42.2726 35.3607 42.2726C35.2601 42.2726 35.1594 42.1724 35.0588 42.1724C34.8279 42.0923 34.5927 42.0254 34.3542 41.972C34.1529 41.972 33.9516 41.8718 33.6496 41.8718C32.7437 41.6714 31.9384 41.5712 31.1332 41.3708L28.8181 41.0702C28.184 40.9895 27.5447 40.956 26.9056 40.97H24.0872V40.8698C24.1938 40.8576 24.2966 40.8235 24.3892 40.7696C24.5905 40.7696 24.8925 40.6694 25.3958 40.6694C25.899 40.6694 26.3017 40.5692 26.9056 40.5692H28.8181C31.8652 36.9728 34.374 32.9568 36.2667 28.6459C39.387 21.4317 40.2929 15.3197 40.2929 13.0152C40.2929 10.7107 37.3739 9.80892 36.3673 13.5162C34.2535 21.2313 32.2404 27.9445 14.5249 46.4808C-4.59986 66.2195 1.64084 98.2824 1.64084 98.2824C13.7196 104.996 30.3279 100.887 30.3279 100.887C30.3279 100.887 30.026 83.9543 38.2798 77.9425C57.1025 64.2156 59.2163 58.1036 60.3235 55.5987C62.0347 51.4907 66.7655 39.4671 69.1813 35.1586C70.5905 32.7539 68.5774 31.7519 67.6715 31.5516Z" fill="#DFDBDA"/>
<path d="M31.0324 40.6694C31.4351 40.6694 31.8377 40.7696 32.341 40.7696C32.8443 40.7696 33.2469 40.8698 33.6495 40.97C33.8508 40.97 34.0521 41.0702 34.3541 41.0702C34.6561 41.0702 34.7567 41.1704 35.0587 41.1704L36.4679 41.471C36.9712 41.5712 37.3738 41.7716 37.8771 41.8718C38.0784 41.972 38.2797 41.972 38.481 42.0722L38.6823 41.8718C44.5679 35.0867 49.3253 27.4082 52.7742 19.1272C55.1213 13.6897 56.7129 7.95919 57.5051 2.0938C57.5532 1.65638 57.4323 1.21714 57.1671 0.865137C56.9018 0.513135 56.512 0.274727 56.0767 0.198257C55.6414 0.121787 55.1931 0.212979 54.8229 0.453342C54.4526 0.693705 54.188 1.06525 54.0828 1.49262C52.8534 6.15438 51.1677 10.6849 49.0499 15.0191C42.7086 28.8463 32.1397 38.3649 30.0259 40.469C30.3359 40.6284 30.6847 40.6978 31.0324 40.6694Z" fill="#DFDBDA"/>
</g>
<defs>
<clipPath id="clip0_1_360">
<rect width="69" height="102" fill="white" transform="translate(0.664429 0.129883)"/>
</clipPath>
</defs>
</svg>
