<?xml version="1.0" encoding="UTF-8"?><svg id="_Слой_2" xmlns="http://www.w3.org/2000/svg" width="164" height="178" viewBox="0 0 164 178" preserveAspectRatio="none"><defs><style>.cls-1{fill:#b9e2bf;stroke-width:0px;}</style></defs><g id="_Слой_1-2"><path id="leaf_main" class="cls-1" d="m141.71,89.45c-13.14,23.59-33.11,45.14-58.25,57.53-16.17,8.1-31.08,10.36-48.65,7.03-1.01-.24-2.02-.6-3.16-.71-1.01-.12-2.15.12-3.29,1.19-6.07,5.96-12.13,11.43-18.07,17.39-1.52,1.55-6.32,7.15-8.84,5.96-2.91-1.43-.76-2.86.51-4.29,1.9-2.38,6.57-7.15,8.84-9.29,4.8-4.65,10.23-10.01,13.9-15.01,2.65-3.69-1.39-14.29-1.01-20.61.76-15.13,5.94-29.9,13.01-43.48,13.01-24.89,34.37-49.67,60.9-62.18,13.27-6.07,26.66-12.03,40.94-16.2,7.71-2.26,23.88-14.41,25.15.6,1.89,23.47-5.18,47.17-15.04,68.49-2.15,4.53-4.55,9.17-6.95,13.58Z"/></g></svg>