<svg width="165" height="173" viewBox="0 0 165 173" fill="none" xmlns="http://www.w3.org/2000/svg">
<path d="M125.839 141.633C128.458 142.116 133.821 142.236 137.687 142.236C147.041 148.872 147.166 150.199 154.649 159.126C154.898 159.488 161.882 170.828 162.381 170.949C163.254 171.07 163.379 166.365 163.005 165.641C155.023 151.043 149.286 149.354 142.052 138.979C142.8 133.671 145.17 129.69 145.295 124.985C145.669 114.368 143.299 103.752 139.059 93.9797C130.828 74.1945 115.737 56.5808 98.6508 43.1896C73.0839 22.198 40.6576 -2.29227 4.86395 2.41275C2.12018 2.77467 1.37188 4.34301 2.36962 7.11777C6.11111 18.0962 10.3515 28.3507 13.3447 39.4497C16.3379 50.79 20.8277 61.6478 26.8141 71.7817C38.7868 92.2907 56.8707 109.542 77.0748 122.451C87.4263 129.086 98.6508 134.636 110.499 138.255C115.363 139.703 120.601 140.668 125.839 141.633Z" fill="#B9E2BF"/>
</svg>
