<svg width="120" height="41" viewBox="0 0 120 41" fill="none" xmlns="http://www.w3.org/2000/svg">
<path d="M120 10.9335C120 12.5487 118.747 13.6669 117.119 13.6669C115.491 13.6669 114.238 12.4244 114.238 10.9335C114.238 9.44262 115.491 8.2002 117.119 8.2002C118.747 8.2002 120 9.31838 120 10.9335ZM114.99 10.9335C114.99 12.176 115.866 13.1699 117.119 13.1699C118.372 13.1699 119.248 12.176 119.248 10.9335C119.248 9.6911 118.372 8.69717 117.119 8.69717C115.866 8.69717 114.99 9.6911 114.99 10.9335ZM116.743 12.3002H116.117V9.56686C116.367 9.56686 116.743 9.44262 117.119 9.44262C117.62 9.44262 117.871 9.56686 118.121 9.6911C118.246 9.81535 118.372 10.0638 118.372 10.3123C118.372 10.5608 118.121 10.8093 117.745 10.9335C117.996 11.0578 118.121 11.182 118.246 11.5547C118.372 11.9275 118.372 12.176 118.497 12.3002H117.745C117.62 12.176 117.62 11.9275 117.495 11.679C117.62 11.3063 117.37 11.182 117.119 11.182H116.868V12.3002H116.743ZM116.743 10.8093H116.994C117.37 10.8093 117.62 10.685 117.62 10.4366C117.62 10.1881 117.495 10.0638 116.994 10.0638C116.868 10.0638 116.743 10.0638 116.618 10.0638V10.8093H116.743Z" fill="black"/>
<path d="M12.6514 7.82715C9.64509 7.82715 6.88935 8.94533 4.75992 10.809V8.69685H0V40.9999H4.75992V28.5756C6.88935 30.4393 9.64509 31.5574 12.6514 31.5574C19.2902 31.5574 24.6764 26.215 24.6764 19.6302C24.6764 13.0453 19.1649 7.82715 12.6514 7.82715ZM12.6514 26.9605C8.64301 26.9605 5.38622 23.7302 5.38622 19.7544C5.38622 15.7787 8.64301 12.5484 12.6514 12.5484C16.6597 12.5484 19.9165 15.7787 19.9165 19.7544C19.9165 23.7302 16.6597 26.9605 12.6514 26.9605Z" fill="black"/>
<path d="M99.0814 7.82715C92.4426 7.82715 87.0564 13.1696 87.0564 19.7544C87.0564 26.3393 92.4426 31.6817 99.0814 31.6817C105.72 31.6817 111.106 26.3393 111.106 19.7544C111.106 13.1696 105.72 7.82715 99.0814 7.82715ZM99.0814 26.9605C95.0731 26.9605 91.8163 23.7302 91.8163 19.7544C91.8163 15.7787 95.0731 12.5484 99.0814 12.5484C103.09 12.5484 106.347 15.7787 106.347 19.7544C106.347 23.7302 103.09 26.9605 99.0814 26.9605Z" fill="black"/>
<path d="M28.5595 0H33.3194V31.5576H28.5595V0Z" fill="black"/>
<path d="M56.8685 10.809C54.739 8.94533 51.9833 7.82715 48.977 7.82715C42.3382 7.82715 36.952 13.1696 36.952 19.7544C36.952 26.3393 42.3382 31.6817 48.977 31.6817C51.9833 31.6817 54.739 30.5635 56.8685 28.6999V31.6817H61.6284V8.69685H56.8685V10.809ZM48.977 26.9605C44.9687 26.9605 41.7119 23.7302 41.7119 19.7544C41.7119 15.7787 44.9687 12.5484 48.977 12.5484C52.9854 12.5484 56.2422 15.7787 56.2422 19.7544C56.2422 23.7302 52.9854 26.9605 48.977 26.9605Z" fill="black"/>
<path d="M65.3862 13.0452H72.9019V31.6816H77.6618V13.0452H85.3027V8.44824H65.3862V13.0452Z" fill="black"/>
</svg>
