<?xml version="1.0" encoding="UTF-8"?><svg id="_Слой_2" xmlns="http://www.w3.org/2000/svg" width="257" height="355" viewBox="0 0 257 355"><defs><style>.cls-1{fill:#e0dddc;}.cls-1,.cls-2{stroke-width:0px;}.cls-2{fill:#39153b;}</style></defs><g id="_Слой_1-2"><path class="cls-1" d="M40.69,30.71c.67-.05,1.2-.78,3.03-6.04,1.52-4.39,2.88-8.88,2.41-13.25-.12-1.14-.38-2.4-1.28-2.81-.97-.45-2.17.33-2.27.4-.98.66-1.31,1.71-1.89,4.32-.26,1.18-.55,2.58-.85,4.19-.05.3-.47.33-.57.05-.8-2.23-1.5-4.2-2.29-6.44-.65-1.55-2.58-2-3.66-1.33-.88.54-1.56,2.15-.75,3.38,1.56,2.39,2.87,4.39,4.44,6.78.15.23-.05.52-.32.48-1.92-.29-2.67-1.06-3.19-1.62-1.96-2.1-1.8-3.59-2.64-4.44-.91-.92-2.53-.64-3.19.23-.91,1.2-.32,6.19,5.08,10.91,3.55,3.11,6.45,5.3,7.95,5.19Z"/><path class="cls-1" d="M31.21,32.15c-2.7-1.05-3.81-3.01-4.12-3.58-2.16-4.04-4.32-8.07-6.48-12.11-1.3-1.99-3.56-2.65-5.19-1.55-1.03.69-1.92,2.98-.43,4.28,0,0,1.5,1.02,2.65,2.41.37.45,1.96,3.18,1.66,3.46-.21.2-1.77-.31-2.85-1.59-1.03-1.22-.78-1.98-1.65-2.68-1.05-.84-2.6-.47-3.22.42-.73,1.03-.1,3.84,1.94,5.19,2.72,1.79,7.24,2.48,6.97,3.41-.23.79-4.07,1.42-6.52.69-3.19-.96-4.98.77-5.23,2.13-.2,1.11.48,3.08,2.06,3.63.89.31,5.04,1.01,9.92.06,5.21-1.02,6.69-3.18,9.94-2.69,1.42.21,3.29,1.43,4.19,2.07,1.62,1.15,4.11,3.53,4.87,4.61.35.5.21,1.03-.4,1.04-4.65.11-7.75.81-10.6.78-3.99-.04-5.96-.62-10.13-.43-3.91.18-7.07.72-9.09,1.13-1.25.28-2.05,1.51-1.8,2.74.25,1.26,1.37,2.43,2.8,1.82,2.19-.79,3.29-1.2,5.44-1.63,1.63-.32,3.13-.48,4.44-.54.2,0,.27.25.1.35-2.1,1.17-4.19,2.33-6.29,3.5-1.89.87-2.44,3.12-1.56,4.44.86,1.3,3.09,1.7,4.64.38,0,0,5.45-5.58,6.01-5.1.54.47-3.05,4.12-4.59,6.17-.95,1.25-1.94,3.24-.61,4.18,1.54,1.09,3.85.68,5.11-1.61,2.06-3.73,2.64-6.99,3.47-9.31,1.06-2.98,1.7-3.61,3.54-4.61,2.54-1.37,9.08-1.15,10.68-.78.09.02.19-.02.22-.11l.54-1.42c.02-.06.02-.12-.02-.18-1.5-1.92-2.65-3.88-5.76-6.26-2.3-1.76-2.99-2.04-4.63-2.68Z"/><path class="cls-1" d="M41.98,41.34c-.17-10.19-2.39-12.08-2.45-12.12.03.02.52-.74.52-.74.16-.03.32.16.63.5,1.17,1.24,1.79,4.98,2.4,12.31l-1.1.05Z"/><path class="cls-1" d="M66.7,15.44c-.64-.71-1.63-1-2.38-.95-1.44.1-1.77,2.07-3.5,3.34-1.05.77-3.43,1.63-3.74,1.32s.02-.79.36-1.19l4.33-5.28c1.61-1.88,1.39-3.63.39-4.46-.98-.81-3.03-.86-4.35,1.02-1.63,2.27-3.81,6.91-4.7,6.41-.67-.38,2.18-5.18,3.07-6.61s.36-2.8-.48-3.38c-1.05-.72-2.99-.38-3.83,1.83-.93,2.44-1.91,5-2.51,9.22-.42,2.91-.28,7.55-.23,8.93,0,.25-.06.5-.21.71-1.15,1.62-3.35,5.28-4.53,10.86l1.18.25c1.13-5.4,3.56-9.83,4.33-10.58.1-.1.47-.4.91-.48,2.02-.38,4.29-.17,7.16-1.28,2.93-1.13,5.21-2.54,6.82-3.72,2.62-1.87,2.98-4.79,1.91-5.97Z"/><path class="cls-1" d="M72.63,34.09c1.75-.58,3.07-1.39,3.95-2.03,1.43-.72,2.06-2.41,1.48-3.83-.54-1.32-2-2.09-3.45-1.78-.01,0-.03,0-.04.01-1.44.57-2.27,1.59-3.92,2.31-1.6.7-5.58,1.88-5.87,1.52s3.37-1.88,5-2.9,3.89-2.89,3.89-2.89c1.04-.84,1.32-2.27.74-3.33-.68-1.22-2.38-1.71-3.72-.91-2.21,1.4-4.79,3.27-7.42,5.76-2.8,2.65-4.93,5.28-6.52,7.57-.15.08-.29.15-.44.23-2.86,1.62-4.54,3.75-5.35,4.96l.84.86c.73-1.12,1.64-2.78,4.34-4.33.02-.01.67-.41.69-.42,2.47,2,5.7,4.18,9.78,5.95,1.66.72,3.26,1.28,4.75,1.72,2.32.91,4.5.2,5.12-1.12.44-.94.11-2.24-.6-3.05-1.01-1.15-2.36-.79-4.66-1.59-1.33-.46-2.37-1.1-3.14-1.66-.13-.09-.06-.3.1-.3,1.14,0,2.71-.16,4.46-.74Z"/><path class="cls-2" d="M180.21,321.7c.15-1.28-1.04-2.28-2.29-1.96-1.58.41-3.52.73-5.75.71-4.24-.04-7.27-1.28-9.44-2.2-3.41-1.44-8.06-3.4-7.95-5.95.04-.96,2.35-3.39,5.64-4.64,3.41-1.3,7.82-1.41,9.84-2.52,1.54-.85,3.94-2.2,6.03-4.89,2.21-2.84,3.36-6.25,2.84-6.59-.52-.34-2.62,2.37-3.05,2.06-.38-.28,1.23-2.41,2.06-5.67.78-3.09.65-6.41-.07-6.59-.6-.15-1.13,1.98-3.48,4.68-1.88,2.16-4.4,4.09-5.04,3.61-.76-.57,1.57-4.24.78-4.82-.45-.33-1.46.73-3.41,1.91,0,0,0,0,0,0-2.26,1.69-7.86,2.37-11.22,4.88-3.42,2.55-5.31,6.68-6.33,9.99-.39,1.28-2,1.73-2.97.81-.86-.82-1.76-1.81-2.63-2.99-1.7-2.32-2.68-4.6-3.26-6.39-.28-.86.14-1.77.95-2.17,6.33-3.13,10.54-6.79,13.17-9.51,4.97-5.13,8.76-11.49,7.81-12.4-.59-.56-2.75,1.26-3.48.57-.79-.75,1.35-3.28,2.41-7.58.92-3.72.73-7.53-.07-7.72-.64-.16-1.31,2.08-4.26,5.53-1.07,1.25-2.83,3.29-3.62,2.91-.85-.41.34-3.17-.5-3.69-1.19-.74-5.74,3.49-8.87,8.5-2.34,3.74-3.54,7.38-4.12,9.43-1.54,5.49-1.17,8.9-2.06,9-1.03.11-2.34-4.44-3.41-8.15-.97-3.37-1.37-5.08-1.21-6.17.67-4.44,5.45-4.83,11.14-11.09,4.47-4.91,6.73-10.39,5.9-11.09-.49-.42-1.97.96-2.63.43-.7-.57.3-2.63,1.14-5.24,1.33-4.17,1.95-8.85,1.21-9.14-.81-.32-3.19,4.56-3.69,4.32-.71-.33,3.49-10.4,2.7-10.77-.68-.32-4.53,6.72-5.61,6.24-.57-.26.33-2.35-.5-2.98-1.12-.84-4.72,1.45-7.1,4.19-2.83,3.25-3.76,6.93-4.45,11.15-1.89,11.53-.73,19.33-1.51,19.47-.49.09-.75-3.02-4.82-15.89-3.13-9.88-3.31-12.1-3.31-12.1-.28-1.01.35-2.04,1.38-2.25,1.34-.27,2.92-.68,4.63-1.31,9.49-3.51,14.54-10.79,16.26-13.32,6.92-10.25,7.16-21.74,6.39-21.97-.51-.15-2.02,4.4-2.84,4.18-1.27-.34,1.02-11.66-.21-11.98-1.11-.29-4.22,8.66-5.54,8.29-.65-.18-.04-2.44-1.14-3.12-1.66-1.03-5.69,2.63-7.24,4.04-3.24,2.95-5.55,5.04-7.38,8.65-3.99,7.82-1.82,14.99-6.25,17.15-.52.25-.99.37-1.28.43-1.51-2.5-3.03-5-4.54-7.51-1.14-1.89-2.28-3.77-3.41-5.66-.45-.74-.31-1.68.33-2.26,3.28-2.98,7.53-7.55,11.18-13.98,3.14-5.53,4.87-10.75,5.85-14.89.25-1.04-.59-1.84-1.66-1.93-.05,0-.1-.02-.14-.04-1.31-.73,3.45-10.23,1.92-11.2-1.7-1.07-9.65,9.33-11.43,8.15-.79-.52.29-2.92-.35-3.26-.97-.51-5.29,3.89-7.67,9.21-4.81,10.77.11,21.29-1.92,21.97-1.25.42-3.26-3.55-9.02-11.06-2-2.62-3.81-4.81-5.23-6.49-.7-.83-.52-2.08.39-2.67,3.89-2.5,8.95-6.5,13.29-12.6,6.02-8.47,8.68-18.23,7.74-18.71-.57-.29-2.16,2.98-3.48,2.62-1.16-.32,1.07-3.62.92-6.77-.19-4.03-1.42-7.58-2.41-7.55-1.15.04-.64,2.97-1,5.56-.37,2.69-1.06,5.17-1.98,5-1.41-.27.15-3.27-.85-3.69-1.73-.72-7.77,7.15-11.78,16.44-4.04,9.35-3.95,15.29-6.67,15.73-1.43.23-3.75-1.03-7.52-8.36l-3.94-6.77c-.49-.85-.22-1.93.61-2.45,6.71-4.2,12.28-8.1,16.68-11.33,3.97-2.92,7.15-5.43,9.16-9.85,1.91-4.2,2.19-8.88,1.56-9.07-.69-.21-2.72,4.77-3.12,4.61-.24-.1.45-1.88.94-4.7.37-2.14.77-5.68.2-5.72-1.42-.11-1.25,1.53-2.78,4.36-1.13,2.09-2.39,4.18-3.14,3.88-.49-.2.84-4.43-.19-4.98-.88-.47-3.14,2.42-6.46,4.78-5.18,3.69-6.07,2.04-9.93,5.35-3.99,3.42-5.41,8.31-5.82,9.71-1.3,4.46-.62,7.4-1.56,7.65-.78.21-4.54-4.87-7.72-11.33-1.99-4.04-3.22-11.92-3.49-13.15-1.06-4.89,3.41-6.52,13.7-9.64,4.54-1.38,6.15-1.39,8.44-1.03.75.12,8.12,1.89,7.17,1.63,0,0-2.45-4.14-1.85-4.68.82-.72,5.66,4.78,6.89,3.9.75-.53.02-3.3-1.35-5.35-1.82-2.73-4.41-3.64-4.19-4.18.29-.71,4.7.96,5.04.25.39-.8-4.14-5.25-10.01-6.02-6.31-.83-11.04,3.02-12.07,3.91-.05.05-.09.08-.13.13-.77.85-8.35,9.18-8.24,9.28,0,0,0,0,0,0,0,0,0,0,0,0-.91.97-1.81,1.93-2.72,2.9-1.06,1.13-2.98.5-3.14-1.04-.22-2.23-.42-9.33,1.08-11.52,3.98-5.81,13.21-8.34,17.04-15.31,5.68-10.35,5.62-20.9,5.41-20.95-.07-.02-.25.78-1.02,1.78-.38.49-1.32,1.71-1.96,1.55-.87-.22-1.16-2.99-.74-5.42.65-3.8,2.78-5.3,2.23-5.99-.76-.95-5.85.61-8.33,4.33-3.5,5.24-1.39,9.16-2.53,9.49-.62.16-1.16-.6-1.45-1.26-.48-1.11.25-1.78-.18-2.07-.47-.3-4.22,2.81-6.25,7.87-2.67,6.67-1.51,12.29-2.63,12.47-1.07.18-3.09-2.65-3.85-5.48-1.66-6.21-2.56-19.28-2.56-19.28.05-2.74,3.68-3.46,5.62-4.41,4.86-2.37,6.19-1.91,11.36-3.79,8.14-2.96,13.13-10.01,12.56-10.84-.28-.41-1.95.58-2.41,0-.86-1.09,3.82-5.98,3.48-6.31-.44-.42-8.11,7.38-9.51,6.31-.67-.51.77-2.53-.07-3.47-1.27-1.44-6.7.79-10.58,3.76-1.03.79-3.95,3.15-6.53,7.3-2.86,4.59-3,7.66-4.33,7.65-1.57,0-2.91-4.27-3.34-6.91-.39-2.4-.18-4.31-.07-5.14.71-5.32,2.67-7.73,4.4-12.19,2.98-7.69,2.3-14.87,1.85-14.95-.13-.02-.24.49-.97,1.25-.24.26-1.15,1.21-1.51,1.02-.4-.22,0-1.84.45-2.97.75-1.91,1.75-2.76,1.54-2.99-.23-.26-1.86.51-3.21,1.82-1.66,1.61-2.12,3.28-2.54,3.14-.31-.1-.31-1.07-.19-1.73.16-.94.71-1.35.55-1.46-.34-.25-5.59,3.83-8.07,10.64-1.48,4.07-1.33,7.54-1.23,9.42.51,9.45,5.79,15.03,4.12,16.58-.79.73-2.24-.44-7.31-1.7-1.69-.42-5.01-1.25-8.16-1.35-6.9-.22-7.72,3.23-12.92,2.62-5.6-.65-9.46-5.22-10.29-4.32-.61.66,1.43,3.13.78,3.76-.81.79-4.59-2.52-5.18-1.91-.53.54,1.35,4.34,4.9,6.45,2.57,1.53,5.08,1.62,5.04,2.06-.06.64-5.35.26-5.47.99-.1.66,4.05,2.5,8.73,2.83,6.89.49,10-2.61,17.25-4.25,3.17-.72,7.68-1.28,13.45-.53.97.13,1.75.89,1.86,1.86l2.17,18.47c.18,1.5-1.45,2.53-2.75,1.76-2.69-1.6-4.64-3.23-6-4.52-3.37-3.19-3.78-4.92-7.24-7.4-4.12-2.96-8.74-4.24-9.16-3.54-.36.6,2.49,2.59,2.13,3.19-.62,1.02-9.3-3.68-9.94-2.69-.72,1.11,9.26,8.6,8.59,9.57-.41.6-4.42-1.98-5.25-.99-.57.67.56,2.74,1.85,4.11,1.92,2.04,4.34,2.71,6.89,3.26,5.93,1.28,8.09.95,11.07,1.56,2.79.57,6.89,1.73,10.85,5.97,1.85,1.98,2.47,5.47,2.92,9.51.5,4.48,1.31,9.53-1.17,10.7-2.08.98-9.8-3.58-12.28-5.56-8.15-6.51-13.31-18-14.24-17.28-.74.57,2.19,5.32,1.63,5.67-.7.44-5.3-6.98-6.74-6.31-1.02.48-.46,4.95,1.28,8.65,1.48,3.15,3.49,5.04,3.05,5.53-.55.61-3.97-2.11-4.47-1.56-.55.59,2.41,4.89,6.6,8.58,4.04,3.55,7.5,5.87,13.35,8.55,2.73,1.25,5.34,1.94,9.87,3.36,2.24.7,3.76.6,4.04,2.8.47,3.66,1.21,8.39,3.27,13.04,2.99,6.77,4.65,9.26,5.68,11.27.78,1.51-2.63.61-4.19-.07-3.82-1.68-10.25-7.37-14.28-11.17-7.81-7.37-12.06-17.3-13.7-16.58-1.06.46.21,4.83-.78,5.17-1.54.54-5.38-9.73-7.45-9.21-1.44.36-2.22,5.97-.43,10.91,1.8,4.96,5.63,7.74,4.9,8.72-.68.9-4.08-1.27-4.69-.5-.91,1.15,4.83,8.33,12.71,13.61,4.59,3.08,9.78,6.56,17.25,6.66,4.98.07,9.04-1.39,11.68-2.67.87-.42,1.92-.09,2.38.76.71,1.3,1.76,3.22,2.68,4.92.76,1.39-.51,3.02-2.05,2.62-1.69-.44-3.59-.89-5.68-1.31-3.6-.72-8.94-1.78-15.12-1.77-10.47.01-19.58,3.1-19.45,4.25.09.82,4.84.63,4.97,1.77.1.87-2.65,1.25-5.33,3.51-3.14,2.65-4.75,6.68-3.97,7.41.67.63,2.68-1.62,7.38-2.73,2.84-.67,5.98-.77,6.25.04.18.55-1.15,1.02-2.35,2.87-.92,1.42-1.88,3.84-1.13,4.64.92.98,9.94-5.01,19.16-8.79,4.32-1.77,11.12-3.81,20.53-4.42.94-.06,2.36.41,2.67,1.45.41,1.37-.08,2.54-1.35,3.01-3.34,1.24-6.89,3.14-11.02,6.45-6.38,5.1-11.31,11.99-10.33,13.11.61.7,3.18-1.25,3.94-.43.96,1.05-1.28,5.73-4.33,9.08-3.25,3.57-7.71,4.72-6.92,5.66.33.5,3.21-.54,5.69-1.93,2.23-1.25,4.08-2.88,4.57-2.29.62.75-2.13,3.48-1.6,4.08.67.75,6.46-1.98,11.11-7.02,3.52-3.81,3.99-6.35,8.63-14.56,1.64-2.92,3.16-5.39,4.37-7.3.65-1.02,2.09-1.13,2.89-.22l6.68,7.56c.79.9.51,2.3-.57,2.82-2.88,1.42-6.56,3.52-10.43,6.57-5.35,4.22-10.73,9.99-9.8,11.3.73,1.03,4.91-1.32,5.54-.35.98,1.51-8.18,8.59-7.63,9.35.25.35,2.54-.66,9.2-4.69,1.21-.73,2.75.13,2.77,1.54.03,2.54.41,3.27.81,3.36,1.4.35,3.31-6.89,9.23-14.28,2.4-2.99,4.85-5.26,6.87-6.89.83-.67,2.07-.47,2.66.42l4.83,7.36c.63.96.22,2.27-.86,2.68-4.65,1.78-10.71,4.69-16.84,9.54-6.39,5.05-13.83,12.96-12.56,14.71.6.83,3.04.13,5.53-.85.12-.05.24-.1.36-.14-.77,2.26-2.15,5.29-4.79,8.01-3.38,3.48-6.91,4.48-6.67,5.1.27.7,5.19.4,9.23-2.34,2.12-1.44,3.55-3.25,3.87-3.01.46.35-2.74,4.01-1.85,5.24,1,1.38,6.81-.74,11-3.3,2.76-1.68,7.11-4.95,10.92-11.19.03-.05.06-.11.09-.16l5.89-11.79c.66-1.33,2.55-1.34,3.24-.02l4.71,9.07c.41.78.18,1.74-.53,2.27-1.75,1.33-3.87,3.22-5.88,5.81-3.45,4.44-5.04,8.94-5.8,12.11-1.07,4.45-1.75,8-1.49,12.06.3,4.68,2.3,8.31,2.89,8.2.36-.07.1-1.5,1.23-2.96.62-.8,1.56-1.5,1.85-1.29.35.25-.51,1.67-1.09,3.56-1.14,3.68-.67,7.28-.18,7.35.47.07.68-3.27,3.36-6.79.28-.37,2.44-3.21,3.46-2.76,1.13.5-.16,4.6.52,4.82.91.3,4.43-5.1,5.68-11.72.64-3.37.43-6.66,0-13.09-.26-3.9-1.47-9.27-.9-9.35.43-.07,4.43,12.35,5.77,16.51,4.22,13.05,8.14,26.6,8.14,26.6.52,1.35-.66,2.72-2.07,2.42-2.83-.6-6.32-1.09-10.32-1.11-8.28-.03-10.64,2.04-16.28.59-6.93-1.77-11.57-6.98-12.35-6.13-.58.64,2.14,3.48,1.33,4.49-.8.99-4.36-.63-4.71-.79-3.05-1.41-4.04-3.21-4.61-2.89-.81.46-.25,4.97,2.69,8.14,3.2,3.45,7.89,3.9,7.77,4.48-.14.66-6.01-.71-6.44.43-.39,1.03,3.5,4.52,8.33,5.24,4.59.69,8.15-1.41,8.85-.24.66,1.11-2.36,3.2-1.8,4.35,1.16,2.38,13.53.68,18.83-1.4,5.65-2.22,9.65-5.92,13.32-7.63.89-.42,1.95-.04,2.39.84l1.66,3.33c.42.85.12,1.88-.69,2.36-2.52,1.49-9.23,8.83-12.69,17.35-2.78,6.33-2.12,14.52-2.03,20.68.01.88.11,5.68,1.23,5.86.99.16,2.06-3.38,2.74-3.21,1.07.26-.57,9.06.38,9.31,1.04.27,4.17-10.02,5.74-9.69.93.2.44,3.96,1.36,4.16,1.54.34,4.98-9.9,5.58-11.72,1.95-5.81,2.92-8.71,3.31-12.8.62-6.58-.74-10.18.57-10.73,1.37-.57,3.14,3.26,9.32,8.13,2.2,1.73,4.53,3.54,7.95,4.96,4.92,2.04,9.33,2.12,9.3,2.48-.03.37-4.45-.73-8.87,1.35-3.42,1.6-5.83,4.63-5.4,5.32.4.63,4.5-1.06,4.87-.4.26.46-1.3,1.82-2.25,2.43-2.22,1.44-3.63,1.84-3.55,2.22.12.53,3.54,1.17,5.55-.37,1.37-1.05,2.1-2.47,2.38-2.39.34.09.25,1.01-.04,1.88-.62,1.89-3.4,2.16-3.32,2.52.12.49,5.03,1.16,9.55-1.42,4.69-2.68,5.55-6.91,9.09-8.19.01,0,1.29-.96,4.1-2.37.55-.27.92-.8.99-1.41l.54-4.57Z"/><path class="cls-1" d="M187.05,313.46c6.67.02,10.43,1.82,17.85,2.83,7.31,1.04,15.23.92,24.86.06,7.15-.86,14.23-1.53,20.39,2.57,4.51,2.84,7.05,6.47,6.84,15.77-.19,6.86-3,15.98-8.7,18.61-6.68,3.09-18.41,1.25-24.11.04-7.26-1.5-12.97-4.7-16.12-6.12-4.5-1.93-8.67-4.22-13.34-5.56-5.08-1.72-9.97-.44-14.55-4.17-3.49-2.96-4.25-8.52-3.51-12.72,1.24-5.16,2.32-11.41,10.24-11.31h.14Z"/><circle class="cls-1" cx="33.87" cy="1.8" r="1.8"/><circle class="cls-1" cx="41.63" cy="2.17" r="1.8"/><circle class="cls-1" cx="28.41" cy="7.08" r="1.8"/><circle class="cls-1" cx="10.87" cy="9.87" r="1.8"/><circle class="cls-1" cx="7.23" cy="20.1" r="1.8"/><circle class="cls-1" cx="4.74" cy="28.47" r="1.8"/><circle class="cls-1" cx="2.94" cy="50.96" r="1.8"/><circle class="cls-1" cx="14.87" cy="59.66" r="1.8"/><circle class="cls-1" cx="59.9" cy="2.17" r="1.8"/><circle class="cls-1" cx="65.47" cy="3.19" r="1.8"/><circle class="cls-1" cx="71.52" cy="13.23" r="1.8"/><circle class="cls-1" cx="78.27" cy="19.18" r="1.8"/><circle class="cls-1" cx="85.09" cy="28.47" r="1.8"/><circle class="cls-1" cx="80.55" cy="33.91" r="1.8"/><circle class="cls-1" cx="80.92" cy="42.28" r="1.8"/><path class="cls-1" d="M64.41,16.66l-.86-.51c.45-.75,1.47-2.14,3.28-3,1.11-.53,2.35-.78,3.6-.72l-.04,1c-1.08-.05-2.16.17-3.12.63-1.57.75-2.46,1.95-2.85,2.6Z"/><path class="cls-1" d="M59.49,7.63l-.83-.56c.77-1.14,1.81-2.1,2.99-2.79,1.21-.7,2.59-1.12,3.98-1.21l.07,1c-1.24.08-2.47.45-3.55,1.08-1.06.61-1.98,1.47-2.67,2.48Z"/><path class="cls-1" d="M59,9.22c-.39-1.27-.51-2.58-.35-3.89.14-1.15.49-2.25,1.04-3.27l.88.47c-.49.91-.8,1.9-.93,2.92-.14,1.15-.03,2.36.31,3.48l-.96.29Z"/><path class="cls-1" d="M40.85,13.46c-.58-1.14-1.27-2.99-1.26-5.31,0-1.79.45-3.58,1.26-5.18l.89.45c-.74,1.46-1.14,3.1-1.15,4.74-.01,2.12.62,3.81,1.15,4.85l-.89.45Z"/><path class="cls-1" d="M36.6,10.4l-.96-.29c.27-.92.53-2.37.2-4.06-.32-1.63-1.05-2.84-1.61-3.57l.8-.61c.9,1.17,1.52,2.55,1.8,3.99.37,1.9.08,3.52-.22,4.54Z"/><path class="cls-1" d="M33.17,13.41c-1-.59-1.89-1.32-2.67-2.17-.91-1-1.64-2.15-2.15-3.41l.93-.38c.47,1.15,1.13,2.2,1.97,3.12.71.78,1.53,1.45,2.44,1.98l-.51.86Z"/><path class="cls-1" d="M17.59,20.62c-.74-.17-5.73-1.88-7.32-5.67-.96-2.29-.61-4.43-.32-5.5l.97.26c-.26.95-.57,2.84.28,4.85,1.43,3.4,5.02,4.33,5.42,4.43l.98,1.63Z"/><path class="cls-1" d="M11.61,22.1c-.1-.34-.37-.97-1.02-1.44-.86-.63-1.82-.54-2.09-.5l-.15-.99c.47-.07,1.69-.15,2.83.68.88.64,1.25,1.5,1.39,1.96l-.96.29Z"/><path class="cls-1" d="M11.77,30.89c-.2-.53-.82-1.83-2.29-2.59-1.78-.92-3.51-.38-3.99-.19l-.36-.93c.58-.23,2.66-.88,4.81.23,1.78.92,2.53,2.49,2.76,3.13l-.94.35Z"/><path class="cls-1" d="M4.13,51.24l-.15-.99c1.63-.24,3.29-.39,4.93-.43,1.56-.04,3.14,0,4.7.14l-.09,1c-1.52-.13-3.05-.18-4.58-.14-1.61.04-3.23.18-4.81.42Z"/><path class="cls-1" d="M13.37,59.5c-.2-.73-.25-1.47-.16-2.21.22-1.66,1.17-2.79,1.71-3.32l.7.72c-.45.43-1.23,1.37-1.41,2.73-.08.6-.04,1.21.13,1.81l-.97.27Z"/><path class="cls-1" d="M75.17,27.21l-1-.04c.06-1.64.44-3.23,1.13-4.7.58-1.24,1.36-2.37,2.32-3.35l.72.7c-.88.9-1.6,1.94-2.13,3.07-.63,1.36-.99,2.81-1.04,4.32Z"/><path class="cls-1" d="M83.8,28.34c-.63-.57-1.69-1.3-3.16-1.58-2.17-.41-3.92.45-4.57.84l-.51-.86c.75-.44,2.77-1.43,5.27-.96,1.71.32,2.93,1.17,3.65,1.82l-.67.74Z"/><path class="cls-1" d="M73.55,38.76c-.5,0-.94-.04-1.27-.09l.15-.99c.99.15,2.94.22,4.82-.92.8-.48,1.48-1.13,2.03-1.91l.82.58c-.63.89-1.42,1.63-2.33,2.18-1.51.92-3.05,1.15-4.22,1.15Z"/><path class="cls-1" d="M80.02,42.46c-.26-.41-.86-1.15-1.91-1.49-1.43-.46-2.65.17-2.99.38l-.52-.85c.43-.26,1.98-1.07,3.82-.47,1.35.44,2.11,1.38,2.45,1.91l-.85.54Z"/></g></svg>