<?xml version="1.0" encoding="utf-8"?>
<!-- Generator: Adobe Illustrator 28.0.0, SVG Export Plug-In . SVG Version: 6.00 Build 0)  -->
<svg version="1.1" id="_Слой_2" xmlns="http://www.w3.org/2000/svg" xmlns:xlink="http://www.w3.org/1999/xlink" x="0px"
	 y="0px" viewBox="0 0 238 252" style="enable-background:new 0 0 238 252;" xml:space="preserve">
<style type="text/css">
	.st0{fill:#39133C;}
	.st1{fill:#FFFFFF;}
</style>
<path class="st0" d="M235.6,56.7c-3.8,0.8-6,2-8.6,3.1c-14.5,6-28.8,12.1-43,18.6c-17.6,8-31.7,19.9-40.8,37.4
	c-6.7,12.9-10.2,26.2-7.4,40.6c1.6,8.4-3.2,14.2-6.6,20.7c-0.3,0.6-1.3,0.5-1.4-0.2c-2.3-10-3.7-20.1-6.2-29.9
	c-3.9-14.8-3.7-29.4-0.2-44.2c1.3-5.4,3.2-9.6,8.6-11.9c2.9-1.2,5.6-3,8.2-4.9c16.1-11.7,20.4-29.4,19.1-51.4c0-0.2-0.2-0.4-0.4-0.4
	c-1.9,0.1-4.2,1-5.8,2.1c-4.5,3.1-8.6,6.6-13,9.9c-12.5,9.4-18.8,22-18.8,36.7c0,1.9,0.3,3.1,0.6,4.2c2.6,9.7-2.5,17.9-5,26.8
	c-0.2,0.7-1.2,0.8-1.5,0.1c-3.3-7.6-6.2-15.2-8.2-22.9c-1-4-0.4-8.5,0.1-12.7c0.6-4.9,2.6-9.8,2.7-14.7c0.1-2.3,0-4.5-0.2-6.7
	c0-0.7-0.1-1.4-0.2-2.1c-0.2-1.4-0.4-2.7-0.6-4c-0.1-0.6-0.2-1.2-0.4-1.8c-4-18.7-16.4-33.3-30.1-48.2c-0.3-0.3-0.5-0.6-0.8-0.9
	C75.7,0,75.5,0,75.5,0l0,0h0.1c0,0,0,0,0,0c-2,1.6-2.7,5-3,6.9c-3,16.7-3,32.9,2.8,49.2c4,11.3,9.3,22.1,20.4,28.3
	c3.7,2.1,5.8,4.8,7,8.6c8.8,28.3,16.4,56.9,20.3,86.4c0.3,2.2,0.1,4.5,0.1,7.7c0,0.7-0.8,1-1.3,0.5c-6.7-6.6-12.2-12.4-11.6-21.6
	c0.6-5.6-1.4-13.7-1.4-13.7c-7.2-30.3-22.9-47.9-50.2-62.8C42.3,80.8,27.8,79.2,9.1,78.1C7,78,1.5,77.6,0.4,79.6
	c-1.5,3.2,1.5,7.5,3.1,9.8c14.4,18,22.8,33.5,37.2,51.2c13.3,16.3,32.3,30,56.3,31.6c2.6,0.3,5.4,1.9,7.4,3.7
	c3.7,3.4,6.9,7.3,10.2,11c7,7.8,10.8,17.1,10.4,27.5c-0.4,9-1.9,17.9-3.4,26.8c-0.7,4,0.2,7.1,2.7,10.4c0.4,0.5,1.2,0.4,1.4-0.2
	c0.1-0.5,0.3-0.9,0.4-1.2c3.7-14.1,3.3-28.6,2.9-42.9c-0.4-14,3.2-26.8,9.4-39.1c1.1-2.3,2.1-2.8,5.5-4c4.7-1.7,9.7-2.8,14.1-4.9
	c13.7-6.5,25.3-16.2,35.9-26.8c19-18.8,33.2-39.6,41.8-65.1c0.8-2.4,1.6-4.8,2.2-8C238.2,57.9,236.8,56.5,235.6,56.7z M145.4,52
	c0.2-0.1,0.4,0.1,0.3,0.3c-6.4,10.1-12.2,19.4-18.2,29c-0.1,0.2-0.4,0.1-0.4-0.2C130.3,69.7,135.9,60.2,145.4,52z M94.2,64.6
	C90,50.9,85.9,37.1,81.8,23.4h0c0,0-1.2-3.4-0.6-3.5c0.9-0.2,2.2,3,2.4,3.2c5.8,13.1,10,26.9,11.7,41.3C95.4,66.4,95,67.2,94.2,64.6
	z M94.7,156.6c-0.6,0.4-2.5-2-2.5-2c-5.9-7.5-11.1-14.7-17.4-21.8c-6.8-7.8-13.7-15.6-21.5-22.3C46.2,104.3,38,99.3,30.1,94
	c-0.4-0.2-0.1-0.8,0.3-0.6c29.9,10.9,47.3,34.5,63.2,60.4C93.6,153.7,95.2,156.2,94.7,156.6z M174,106.8
	c-10.6,11.4-17.4,20.3-26.3,41.4c-0.1,0.2-0.9,1.2-1.3,0.7c-0.8-0.9,8.1-28.1,25-44.2c8.8-10.2,31.7-20.8,40.5-26.8
	c0,0,1.6-1.2,2-0.5c0.2,0.5-1,1.6-1.1,1.7C205,84.3,186.4,93.4,174,106.8z M107.8,57.1c0-0.7-0.1-1.4-0.2-2.1
	c-0.2-1.4-0.4-2.7-0.6-4c-0.1-0.6-0.2-1.2-0.4-1.8C102.7,30.4,90.1,16,76.6,1c-0.3-0.3-0.5-0.6-0.8-0.9C75.7,0,75.5,0,75.5,0l0,0
	l0,0l9,17.7L92.3,33L108,63.7C108.1,61.4,108,59.2,107.8,57.1z"/>
<path class="st1" d="M94.7,156.6c-0.6,0.4-2.5-2-2.5-2c-5.9-7.5-11.1-14.7-17.4-21.8c-6.8-7.8-13.7-15.6-21.5-22.3
	C46.2,104.3,38,99.3,30.1,94c-0.4-0.2-0.1-0.8,0.3-0.6c29.9,10.9,47.3,34.5,63.2,60.4C93.6,153.7,95.2,156.2,94.7,156.6z"/>
<path class="st1" d="M212.8,79c-7.8,5.4-26.4,14.4-38.9,27.8c-10.6,11.4-17.4,20.3-26.3,41.4c-0.1,0.2-0.9,1.2-1.3,0.7
	c-0.8-0.9,8.1-28.1,25-44.2c8.8-10.2,31.7-20.8,40.5-26.8c0,0,1.6-1.2,2-0.5C214.2,77.8,212.9,78.9,212.8,79z"/>
<path class="st1" d="M145.7,52.3c-6.4,10.1-12.2,19.4-18.2,29c-0.1,0.2-0.4,0.1-0.4-0.2c3.2-11.4,8.8-20.9,18.3-29.1
	C145.6,51.9,145.9,52.1,145.7,52.3z"/>
<path class="st1" d="M94.2,64.6C90,50.9,85.9,37.1,81.8,23.4h0c0,0-1.2-3.4-0.6-3.5c0.9-0.2,2.2,3,2.4,3.2
	c5.8,13.1,10,26.9,11.7,41.3C95.4,66.4,95,67.2,94.2,64.6z"/>
</svg>
