<?xml version="1.0" encoding="UTF-8"?><svg id="_Слой_2" xmlns="http://www.w3.org/2000/svg" width="466" height="561" viewBox="0 0 466 561"><defs><style>.cls-1{fill:#39153b;stroke-width:0px;}</style></defs><g id="_Слой_1-2"><path class="cls-1" d="M279.03,466.08c-13.68,10.23-13.01,20.43-8.18,30.92,4.83,10.48,18.26,39.94,18.46,43.89.28,5.51-.92,19.72-2.51,20.09-3.04.7-8.13-14.94-8.64-17.83-1.71-8.25-2.62-16.91-6.59-24.37-5.53-13.65-25.44-2.13-36.29-1.88-32.83,1.89-24.87-45.75,18.4-18.92,16.87,8.1-25.08-46.57-27.17-50.3-6.38-10.56-14.63-16.41-26.88-18.06-3.74-.52-7.92-3.4-11.57-1.45-2.37,1.6-3.33,5.33-4.73,7.87-2.2,4.61-5.73,9.43-10.13,12.29-7.97,5.47-18.21.57-16.53-8.83,1.4-7.33,10.05-10.68,15.98-13.54,7.48-3.89-.83-7.45-4.44-10.1-6.88-4.74-12.73-10.94-18.8-16.57-3.12-3.73-6.58-1.85-9.31,1.72-7.25,9.52-16.52,18.29-28.59,10.18-6.9-4.39-5.05-14.5,1.69-18.08,6.34-3.5,20.95-3.11,22.53-6.74.65-1.93-1.77-3.93-2.92-5.45-5.67-6.39-10.86-13.04-16.08-19.71-4.39-4.18-9.29-18.25-15.71-8.65-10.02,15.3-36.61,23.89-44.46,7.53-4.69-8.39,4.59-18.98,14-19.55,7.93-1.44,15.9,1.47,23.86.45,8-.79,2.57-7.46.24-11.18-4.21-6.95-8.12-14.08-11.84-21.36-3.66-9.68-13.32-.66-19.53,1.22-10.99,4.43-26.32,4.16-34.09-5.78-6.13-7.34-2.08-20.15,7.38-21.82,11.74-1.23,20.74,8.43,32.07,11.34,2.94.75,5.95-.28,4.49-3.76-8.29-17.22-16.32-34.67-24.43-51.96-6.38-8.65-16.21,1.19-22.66,5.58-3.6,2.43-8.08,4.25-12.39,4.28-20.74-1.09-17.09-29.37,6.04-30.75,4.48-.27,19.83.38,9.87-4.84-46.75-24.5,5.36-67.28,13.43-13.44.11,1.95,2.36,10.09,2.94,4.13-1.64-21.07,16.18-32.06,25-27.02,4.32,2.47,8.22,10.16,3.14,19.66-2.25,4.2-13.93,15.23-8.55,13.72,7.48-3.84,23.13-7.18,25.66,3.2,2.44,14.13-15.13,16.86-25.56,15.54-15.88-.35-7.08,17.63,2.86,34.68,5.51,9.45,12.46,24.49,15.24,24.34,3.75-.2,3.92-14.87,4.46-18.76-.06-10.87,8.06-22.86,19.13-18.95,22.4,9.94,2.34,40.79-13.64,48.18-5.94,2.59-3.05,8.05-.5,12.32,3.51,6.51,6.79,13.2,10.47,19.6,4.32,8.13,7.42,4,9.91-5.69,2.43-7.25,2.6-16.8,7.68-22.28,4-4.04,10.75-5.36,15.76-2.56,13.82,10.24,4.83,33.56-9.53,39.28-8.11,3.32-18.52,3.63-9.09,14.37,7.14,9.49,14.73,18.7,23.48,26.84,4.27,3.71,6.49-2.22,6.92-5.82.99-5.61-.05-11.68,2.49-16.57,2.65-5.25,10.06-7.6,15.01-4.39,7.55,4.17,8.1,19.33-2.09,28.88-3.35,4.4-13.78,7.17-7.43,13.28,3.51,3.66,27.68,28.51,25.94,12.73-.36-5.33-2.11-13.41.57-18.58,3.69-8.06,16.36-7.27,16.98,2.28,1.35,7.81-2.02,14.93-5.37,21.93-.77,1.75-1.92,3.84-.81,5.57,1.67,2.46,8.44,3.7,12.74,4.56,4.85,1.26,9.14,1.34,5.98-4.9-11.27-27.91-16.2-58.21-19.44-88.01-1.94-17.89-17.17-4.88-26.69-6.41-20.99-4.21-12.06-36.08,23.11-18.86,3.99,1.95,3.08-12.39,2.68-22.52-.21-5.31.49-23.25-2.64-25.9-4.54-3.85-12.16,2.6-21.04,4.43-19.37,3.85-26.15-22.56-8.42-30.07,6.06-2.49,12.8-1.22,18.47,2.13,9.54,5.82,13.64,14.82,13.06,2.36-.16-11.59-.46-23.19-.98-34.75,0-4.05-.43-9.94-5.91-9.4-48.89,16.34-52.8-23.63-28.08-26.57,17.44-2.38,30.29,18.41,32.27,12.62.69-13.09.68-27.01-2.81-39.67-1.93-7.01-11.99-.9-19.43-.67-13.65.41-28.6-9.23-27.1-23.71,1.36-9.89,13.62-13.5,21.27-8.11,8.23,3.65,26.73,28.65,23.11,7.71-.99-10.71-2.41-21.4-3.45-32.17-1.1-5.64.42-16.19-7.81-15.82-10.08,2.08-21.03,6.8-31.24,2.71-10.51-3.36-11.84-18.66-2.61-24.34,15.47-9.82,31.62,9.9,36.38,5.06,3.44-3.5-6.32-14.74-7.66-22.01-6.91-22.62,24.52-39.15,29.36-12.21,2.09,11.63-13.25,32.8-5.8,36.26,2.81,1.3,6.53-6.91,8.95-10.02,6.64-10.03,21.55-18.39,29.84-9.72,11.92,12.29-6.47,27.71-19.37,31.18-3.53.91-7.32,1.72-11.11,1.8-2.78.1-6.41-.31-8.53,1.67-1.8,1.83-1.82,4.85-1.84,7.34-.04,13.72,1.99,27.33,3.05,40.98-.02,5.8,3.11,8.56,6.54,2.76,4.53-8.79,3.17-21.85,12.51-26.9,9.05-5.56,20.79,1.59,19.87,12.25-1.09,13.55-12.78,24.44-24.87,29.24-3.26,1.64-9.35.46-10.72,2.67-1.91,3.07-.29,8.33.17,11.98,1.19,9.54,1.09,19.24,1.66,28.84.05,12.55,9.77.65,13.59-4.06,6.35-10.57,19.4-18.45,30.47-9.71,4.15,3.05,6.36,8.17,5.78,13.31-1.99,19.82-27.33,17.47-43.08,16.08-5.17.14-6.44,4.85-6.04,9.17.16,11.16.92,22.12,1.03,33.32.19,2.74-.46,7.17,1.2,9.29,7.2-.81,14.98-21.48,31.44-16.16,8.94,3.08,10.44,15.91,5.63,23.07-7.29,12.06-33.68,2.43-37.28,13.08-1.15,3.39-1.92,42.11,1.74,39.42,5.14-3.78,6.52-10.92,11.48-14.94,13.67-11.08,29.73-4.88,22.72,10.79-11.39,28.54-40.9,3.28-33.17,41.67.78,3.89,1.89,7.51,5.58,3.46,23.25-22.76,45.74-49.13,77.37-60.2,2.14-.87,4.41-2.05,5.56-3.98,3.86-11.9-7.64-28.72-5.58-42.08,4.81-25.34,43.61-10.15,23.23,33.29-2.81,8.15,32.91-11.34,34.9-13.76,16.96-11.02-19.56-29.63-3.26-48.69,17-11.82,25.2,15.72,22.3,28.78-1.54,9.51,9.83-.95,13.15-3.12,6.79-4.45,26.52-16.47,22.84-25.38-5.26-7.51-13.96-12.23-19.25-19.77-14.42-20.84,17.8-42.71,25.7-12.37,1.11,3.69,1.69,7.56,1.9,11.14.11,1.81-.08,11.08,2.03,4.89,3.43-13.01,2.75-26.68,4.17-40.04.6-5.71.71-11.49,1.4-17.17.28-3.24,1.57-7.65-.51-10.25-8-3.3-20.1,10.99-32.76.95-8.49-6.79-1.53-20.6,7.24-23.32,6.29-1.67,13.5-1.56,19.4,1.15,4.32,2.25,1.81-1.66-.16-3.86-27.41-37.92,35.39-51.55,18.11-.44-.21,1.01-.72,2.2-.42,3.19.1.51,1.06-1.21,1.25-1.83,1.32-3.64,2.5-7.55,4.64-10.85,5.24-9.71,22.79-18.42,28.66-5.5,2.82,9.62-5.95,17.15-13.96,20.62-3.84,1.66-14.21,7-3.35,5.81,37.61,1.64,23.98,46.49-7.18,21.42-3.53-1.91-9.32-10.54-13.05-6.94-2.62,4.14-1.93,13.81-2.1,20.19-.5,18.46.19,36.89-5.3,54.53.32,3.42,13.67-13.34,24.4-13.88,2.63-.17,5.27.63,7.5,1.93,6.26,3.31,8.62,11.25,5.28,17.51-4.36,9.28-16.37,11.9-26.21,11.83-7.07.03-15.79-5.26-21.57,1.01-8.71,11.2-20.46,18.86-31.85,27.07-1.37,1.22-4.49,2.85-5.11,4.38-1.02,2.4,16.39,1.3,24.36,4.97,7.61,2.71,14.37,14.04,10,20.95-7.22,10.25-22.81,2.87-31.15-3.36-9.35-6.03-13.14-13.51-19.28-10.74-5.79,2.14-11.53,6.52-16.95,9.67-4.91,2.89-11.29,5.77-16.93,8.17-2.09.87-7.68,3.39-3.44,5.56,58.04,14.07,16,74.42-15.34,5.23-2.86-6.31-18.68,3.11-24.12,6.27-4.83,2.81-40.75,27.9-37.1,31.81,1.95,1.63,5.06,1.79,7.47,2.51,7.82,1.2,15.4,6.56,23.38,5.64,6.76-1.84,14.95-10.31,24.98-10.94,16.78-.67,18.76,16.67,2.73,20.95-14.07,2.67-3.26,3.81.78,11.13,12.29,22.93-17.59,30.41-22.88,5.69-.74-1.9-1.41-3.09-1.97-2.64-5.16,33.88-32.97,20.62-22.35,1.39,2.5-5.91,20.01-15.08,7.93-19.92-8.86-2.57-23.66-8.22-32.11-4.18-3.31,2.08-5.76,5.82-8.21,8.84-16.17,17.44-9.57,28.34-3.63,48.38,8.81,28.86,24.97,54.84,41.58,79.81,2.57,4.09,4.61,3.56,8.02-.1,2.39-2.56,3.39-3.91,4.77-5.51,2.41-2.79,3.75-4.94,4.04-8.24-.88-8.86-10.48-13.86-13.94-21.59-3.5-5.75-2.24-14.48,4.57-17.04,22.57-5.81,16.27,30.1,21.48,27.88,5.8-2.99,10.16-8.52,15.22-12.64,3.73-3.04,9.05-5.87,9.15-10.99.08-7.77-12.16-16.78-7.94-29.16,2.83-9.95,13.39-11.86,18.32-2.21,4.14,7.15-.1,15.59-.2,23.31,1.52,4.53,7.18-2.8,9.22-4.08,5.34-5.24,10.32-9.67,14.69-15.6,3.78-5.42-1.98-10.74-5.42-14.69-3.36-3.99-6.88-8.76-6.03-14.24.54-7.34,10.42-11.2,15.09-5.12,2.18,2.83,3.95,17.83,5.05,8.87,2.39-19.56,24.55-30.54,22.74-9.76-.76,8.78-16.31,17.54-.53,14.69,15.74-2.84,15.38,15.66,3.11,20.87-8.56,3.63-17.78-3.26-24.63,1.32-6.28,4.21-9.38,11.62-15.05,16.33-1.9,2.27-17.1,11.62-6.24,10.19,7.12-1.35,13.9-5.51,21.31-3.79,5.96,1.2,8.75,8.33,5.53,13.76-6.53,9.6-19.9,9.44-29.3,4.23-3.92-1.76-7.48-6.75-11.74-6.43-8.06.62-14.15,9.57-20.66,15.19-7.11,6.15-6.51,7.72,2.99,7.44,17.85-.06,25.51,12.49,22.52,19.87-1.95,4.81-8.43,7.43-19.57,2.91-8.36-3.39-13.77-16.38-23.2-13.1l-.09.04Z"/></g></svg>