<?xml version="1.0" encoding="UTF-8"?><svg id="_Слой_2" xmlns="http://www.w3.org/2000/svg" width="186" height="447" viewBox="0 0 186 447"><defs><style>.cls-1{fill:#e0dddc;}.cls-1,.cls-2{stroke-width:0px;}.cls-2{fill:#39153b;}</style></defs><g id="_Слой_1-2"><path class="cls-1" d="M107.59,38.29l-1.96-.41c1.88-9,9.83-12.55,13.35-15.47l1.13,1.28c-4.66,3.56-10.81,6.38-12.53,14.61Z"/><path class="cls-2" d="M108.64,134.43l-5.9-4.12c-1.78-1.23-4.3-3.27-6.6-6.39-.51-.7-2.62-3.62-4.12-8.1-1.92-5.72-1.81-10.87-1.42-14.21.65-4.83.59-13.13-2.13-22.59-1.11-3.86-3.24-11.98-10.73-18.19-2.27-1.89-6.11-3.08-11.86-7.1-1.79-1.25-4.42-2.87-5.26-2.13-.81.71.62,3.14,0,3.55-.67.45-2.76-2.1-6.25-4.83-.73-.57-6.58-5.15-7.96-3.98-.89.76.66,3.44,0,3.84-.7.42-2.68-2.51-6.39-5.4-.3-.23-6.15-4.75-7.53-3.55-.43.37-.55,1.4.71,4.26-1.3-1-3.2-2.32-5.68-3.55-2.94-1.46-4.65-2.29-5.82-1.56-1.47.91-1.28,3.73-1.14,5.97.3,4.57,2,7.5,1.28,7.96-.71.45-2.51-2.3-3.55-1.85-1.39.6-.53,6.5.99,11.37,1.46,4.65,3.38,7.91,2.7,8.38-.66.46-2.69-2.36-3.69-1.85-1.3.67-.16,6.57,1.99,11.65,1.87,4.43,4.15,7.39,3.41,8.1-.67.64-2.88-1.46-3.69-.85-1.34,1,1.78,8.66,6.39,14.92,2.07,2.81,8.12,10.8,19.04,15.2,10.55,4.26,23.38,4.26,28.84,4.26,1.34,0,3.87-.04,7.25.57,4.78.86,8.12,2.44,12.79,4.69,5.6,2.7,8.66,4.18,8.45,5.54-.17,1.12-2.93,1.65-8.45,2.7-5.37,1.02-9.26,1.22-10.94,1.28-2.35.08-9.7-2.84-15.06-4.97-4.37-1.74-12.74-2.82-19.02-2.71-5.78.1-13.44,2.14-18.06,5.69-3.95,3.04-10.89,10.19-9.66,12.08.68,1.04,3.46,0,3.69.71.24.72-2.6,2.06-6.39,5.4-2.8,2.46-2.82,3.12-2.7,3.41.46,1.11,4.39.13,4.55.71.11.41-1.65,1.57-4.61,3.11-3.11,1.62-4.77,1.53-4.77,2.72,0,1.31,5.27,1.88,6.54,1.85,1.77-.05,5.62-.64,5.54.43-.09,1.29-3.48,1.63-3.41,2.42.06.77,3.4,1.48,6.82,1.14,3.09-.31,5.43-1.4,5.54-1.14.14.32-3.43,1.59-3.27,2.56.17,1.03,4.61,1.59,8.81.87,3.93-.68,6.71-2.31,6.96-1.86.29.5-3.33,2.48-2.98,3.41.46,1.24,7.64-.34,13.07-1.55,6.78-1.51,10.17-2.27,12.79-3.71,4.87-2.68,7.78-6.26,10.09-9.09,3.16-3.88,3.13-5.14,7.81-11.23,2.61-3.39,3.95-5.12,5.68-6.39,4.46-3.3,9.38-3.99,11.43-4.26,2.41-.32,4.46-.26,5.9-.14v-3.41Z"/><path class="cls-1" d="M37.65,61.7c.61-.56,11.55,9.02,21.59,21.6,3.29,4.13,3.84,5.26,11.79,15.49,5.04,6.49,7.83,9.9,10.8,13.36,6,6.98,9.34,10.25,10.94,11.65,5.73,5.04,9.53,6.96,12.58,9.09,2.76,1.92,3.16,1.63,2.88,3.02-.09.42-.15.9-1.03,1.01-1.8.24-4.96.33-7.6.73-3.38.5-7.3,1.6-11.52,4.48-3.62,2.45-7.64,4.94-12.08,7.39-5.51,3.04-10.77,5.51-15.63,7.53-3.38,1.39-8.27,3.03-14.35,3.84-7.46.99-14.48.41-14.49,0-.01-.26,2.75-.3,7.96-1.28,6.02-1.13,10.39-2.6,11.51-2.98,3.37-1.16,2.77-1.24,10.37-4.4,6.99-2.91,7.19-2.72,10.66-4.4,3.52-1.72,3.62-2.08,8.38-4.4,4.34-2.12,6.96-3.14,7.67-3.41,2.96-1.13,5.26-1.82,6.82-2.27,2.3-.67,4.91-.84,8.36-1.53.63-.12,1.93-.53,2.06-1.03.25-.98-2.47-2.35-6.04-4.87-4.48-3.16-7.77-4.81-8.67-5.29-3.68-1.97-6.31-4.01-11.2-9.02-2.84-2.91-6.77-7.21-14.78-17.9-4.08-5.45-5.01-6.93-8.95-12.36-12.1-16.65-18.54-23.56-18.04-24.01Z"/><path class="cls-2" d="M113.77,188.41c.62-2.47,1.89-6.29,4.74-10.13,3.79-5.1,9.09-8.52,9.66-7.96.39.38-1.4,2.53-.95,2.94.43.39,2.27-1.43,5.68-2.94.35-.15,4.13-1.81,4.64-1.04.41.62-1.6,2.43-1.33,2.75.46.53,6.39-4.36,7.39-3.41.46.43-.4,1.8,0,2.08.7.49,3.95-3.26,4.36-2.94.46.36-3.13,5.39-2.37,6.06.34.3,1.3-.51,1.61-.19.41.41-.72,2.31-1.8,3.69-1.46,1.87-2.87,2.86-2.65,3.22.21.34,1.54-.44,1.99,0,.41.4.09,3.98-3.53,5.71-2.05.82-4.59,1.94-4.52,2.15.08.24,2.28-.52,2.56,0,.31.6-1.92,2.88-4.64,3.99-2.35.95-4.36.74-9.19,0-3.93-.6-7.51-1.22-10.7-1.8l-.95-2.19Z"/><path class="cls-1" d="M110.09,192.4l.65,1.8c.93-.88,2.29-2.14,3.98-3.6,4-3.46,6.01-5.19,8.62-6.54,3.27-1.69,7.27-2.82,7.67-2.94,1.72-.48,3.53-.87,5.4-2.37,1.34-1.07,2.54-2.58,2.27-2.94-.22-.29-1.34.36-3.13,1.04-2.97,1.13-3.86.83-6.63,1.61-3.07.87-5.21,2.16-6.82,3.13-2.67,1.61-4.39,3.16-6.35,4.93-1.57,1.41-3.55,3.36-5.67,5.87Z"/><path class="cls-2" d="M110.76,136.18l.1,1.39c2.81,3.19,8.22,7.54,10.16,9.45,3.88,3.83,5.94,5.45,8.67,6.68,2.44,1.1,5.48,1.93,5.97,1.14.45-.73-1.45-2.52-1.14-2.84.27-.28,1.77,1.02,4.2,2.27.55.28,4.37,2.25,5.03,1.42.52-.65-1.22-2.67-.85-2.98.31-.27,1.53,1.17,3.84,1.99.4.14,2.86,1.01,3.55.14.57-.71-.41-2.13,0-2.42.37-.25,1.17.86,2.7,1.42,1.53.55,3.37.4,3.55-.14.3-.91-4.05-2.68-3.69-3.98.18-.66,1.39-.52,1.56-1.14.42-1.46-5.88-4.23-5.54-5.12.19-.51,2.37.22,2.7-.43.55-1.07-4.54-4.72-5.68-5.54-2.15-1.55-3.23-2.32-4.4-2.84-3.86-1.73-7.29-.79-12.22,0-3.41.55-12.41,1.39-18.5,1.53Z"/><path class="cls-1" d="M110.09,136.93c.01-.08.27-.49.72-.5,1.63-.04,5.74.71,9.6,1.31,2.49.39,6.43,1.03,11.33,2.56,7.36,2.3,13.28,5.52,13.14,5.86-.16.4-8.78-2.64-13.67-3.98-2.8-.76-7.35-1.8-11.22-2.66-1.34-.3-7.04-1.71-9.13-2.31-.46-.13-.77-.27-.77-.28Z"/><path class="cls-1" d="M115.7,217.78h-1.28c-.9,0-1.69-.57-1.97-1.43-1.48-4.51-3.23-10.6-4.64-17.9-.98-5.11-2.95-16.13-3.13-34.77-.19-20.08,3.05-20.29,3.98-44.24.51-13.07.78-19.98-.14-29.98-.89-9.68-2.58-15.26-4.33-31.26-.77-7.07-1.12-15.21-1.42-19.07,0,0,0-3.17,2.91-3.17,2.32,0,2.8,1.9,2.8,1.9-.09,1.71-.43,7.82-.38,11.1.13,8.77,1.25,14.41,2.27,22.02.94,6.99,1.32,12.01,1.85,19.04.5,6.62,1.22,16.25.85,27.85-.47,14.76-2.24,16.34-3.61,33.75-.56,7.15-.27,11.2-.16,17.12.23,11.77,1.41,18.66,2.34,25.29.77,5.48,2.27,13,5.41,21.82.33.93-.36,1.9-1.35,1.9Z"/><path class="cls-2" d="M114.51,132.49s3.01-3.18,3.71-4.42c1.96-3.46,3.56-11.42,4.17-15.35,1.62-10.55,4.15-17.7,6.44-21.22,5.18-7.98,13.11-13.61,13.92-12.88.53.47-1.88,3.73-1.33,4.17.56.44,2.98-2.82,7.39-5.21,4.26-2.31,8.99-3.05,9.47-2.08.39.78-2.09,2.53-1.74,3.03.33.48,2.68-.9,6.38-2.08,1.23-.39,6.44-1.99,6.98-.95.42.82-2.29,2.76-1.96,3.22.25.35,1.95-.52,5.3-1.89,3.79-1.55,4.98-1.81,5.41-1.33.51.57-.43,1.76,0,2.18.94.93,6.42-3.78,7.19-3.03.76.74-3.73,6.27-2.94,7.01.48.44,2.37-1.29,2.94-.8.67.59-1.07,3.82-2.27,5.72-1.81,2.87-3.52,4.49-3.13,5.02.36.48,1.91-.64,2.46-.09.82.81-1.15,4.71-3.69,7.77-1.76,2.12-3.73,3.75-3.41,4.22.24.35,1.42-.44,1.89,0,.76.71-.7,4.16-3.13,6.87-2.58,2.88-5.51,4.12-5.3,4.55.21.45,3.32-1.13,3.79-.47.68.96-4.09,6.94-11.08,10.42-4.19,2.09-7.92,2.65-12.98,3.41-4.89.74-5.59.3-12.98,1.23-3.28.42-6.12.78-9.76,1.61-4.58,1.04-8.47,2.1-11.01,3.09l-.75-1.7Z"/><path class="cls-1" d="M110.09,135.46c.9-.04,2.21-.19,3.68-.66,2.49-.8,4.11-2.1,6.54-4.17,3.49-2.98,5.23-4.46,6.54-5.78,5.51-5.58,7.13-8.1,10.7-11.94,4.29-4.61,7.98-7.45,12.22-10.7,6.5-4.99,7.92-5.07,16.29-11.08,5.49-3.95,12.95-9.71,12.6-10.23-.31-.45-6.41,3.19-11.56,6.25-9.34,5.57-14.01,8.35-19.32,12.69-3.22,2.63-7.53,6.15-12.22,11.71-2.59,3.07-4.95,6.35-9.85,11.69,0,0-1.82,1.99-6.44,5.97-1.86,1.6-3.43,2.85-5.78,3.69-1.37.49-2.57.69-3.4.78v1.78Z"/><path class="cls-2" d="M138.72,220.77c.41.92.28,4.6,0,11.94-.18,4.6-.28,5.68,0,7.67.6,4.32,1.91,5.35,2.9,8.81,2.38,8.27-2.59,11.15,0,18.47.29.82.15.21,4.83,7.96,3.31,5.48,4.98,8.24,5.4,9.38,1.22,3.29.95,5.37,0,15.63-1.33,14.41-1.4,16.96-2.27,17.05-1.35.15-3.51-5.71-4.29-11.08-1.08-7.4,1.08-9.46,0-16.48-.97-6.29-3.81-11.88-4.8-11.65-1.15.26.81,8.14.57,21.6-.17,9.34-.26,14.68-2.33,21.6-2.57,8.57-5.37,10.18-5.06,16.2.31,5.95,3.11,5.76,5.06,13.93,2.18,9.16-1.03,10.76,1.76,19.32.94,2.89,1.72,3.98,3.98,10.51,2.93,8.49,2.43,9.02,2.27,9.09-.93.44-4.82-7.69-6.54-7.1-1.49.51.77,6.85-.28,15.35-1.11,9-5.41,16.17-6.25,15.91-.77-.24,1.52-6.62,2.56-18.19.56-6.22.37-11.34,0-21.6-.34-9.42-.87-13.13-2.56-17.34-1.47-3.66-3.51-8.76-6.25-8.81-4.03-.07-4.39,10.84-13.65,24.44-1.76,2.59-6.05,8.78-13.35,14.78-6.24,5.12-15.06,10.41-20.46,13.64-7.3,4.37-8.85,4.88-9.95,7.39-2.43,5.59,2.44,9.64,0,18.23-.92,3.24-1.84,3.46-2.84,7.63-1.47,6.11-.67,10.47-1.14,10.51-.53.06-2.6-5.57-2.27-12.5.26-5.64,1.89-7.6,1.7-13.93-.13-4.35-.19-6.55-1.7-7.67-2.19-1.62-5.36.56-18.75,7.1-5.75,2.81-11.35,5.92-17.05,8.85-5.09,2.62-6.78,3.45-7.96,5.64-3.09,5.75,1.23,13.44,0,13.93-.72.28-2.39-2.26-3.13-3.69-1.45-2.8-1.45-5.4-1.42-6.25.15-4.41,2.56-6.95,1.99-7.39-.64-.49-3.92,2.57-6.25,5.12-3.66,3.99-5,6.73-5.4,6.54-.56-.27.52-6.36,4.55-11.37,3.37-4.19,6.72-5.03,15.91-9.38,2.7-1.28,7.58-3.88,17.33-9.09,9.24-4.94,13.96-7.47,18.75-10.8,6-4.16,9.22-6.4,12.5-10.23,8.95-10.44,10.73-23.88,9.38-24.44-1.24-.52-3.83,10.38-15.06,20.18-6.16,5.38-13.1,8.83-17.05,10.8-11.01,5.48-16.48,7.67-16.48,7.67-2.85,1.14-4.38,1.66-6.54,3.13-5.71,3.9-8.03,9.23-8.81,8.81-.5-.27.16-2.64.85-4.26,1.14-2.66,2.53-3.6,2.27-3.98-.49-.73-6.55,1.46-12.5,5.97-7.19,5.45-10.16,11.2-10.8,10.8-.61-.38,1.22-6.25,5.68-11.37,4-4.59,7.53-5.61,16.48-10.23,9.87-5.09,14.8-7.64,19.32-11.65,2.68-2.38,5.96-7.27,12.5-17.05,1.65-2.47,7.56-11.34,14.21-23.87,5.33-10.04,5.71-12.2,4.83-13.07-1.77-1.76-8.56,1.79-12.79,5.12-4.06,3.19-6.71,6.9-10.51,12.22-3.46,4.84-3.87,6.23-6.54,8.53-4.39,3.78-9.58,5.43-9.95,4.83-.31-.51,2.97-2.39,7.39-7.1,1.22-1.3,2.79-3.1,6.82-8.81,7.69-10.9,6.42-10.66,8.81-13.07,6.51-6.58,10.97-3.33,16.76-9.09,4.18-4.16,5.16-9.21,7.1-19.32,1.34-6.98.64-7.92,1.7-21.6,1.16-14.92,2.52-20.6.28-21.6-1.79-.8-6.15.93-10.51,4.97-2.36,2.19-4.2,5.26-5.68,9.52-1.21,3.48-2.85,6.16-3.69,10.23-.56,2.72-.81,4.46-1.42,6.54-2.54,6.66-3.4,8.05-3.69,7.96-.49-.15.47-4.44,1.42-9.95,1.26-7.28,1.28-13.36,2.27-17.34.71-3.41,3.71-8.17,7.67-11.15,5.39-4.06,9.7-2.87,11.65-6.75,1.25-2.48,3.12-6.58,2.32-10.92-.37-2.03-.16-5.9.57-8.43.43-1.51,1.02-2.23,2.2-4.04,2.31-3.55,1.03-6.76,1.45-10.42.33-2.96,2.58-12.53,22.02-15.23,4.57-.63,9.05-.55,15.6.74,5.59,1.1,12.21,2.4,14.32,7.1Z"/><circle class="cls-2" cx="81.1" cy="35.97" r="3.98"/><circle class="cls-2" cx="76.12" cy="28.02" r="3.98"/><circle class="cls-2" cx="83.31" cy="21.97" r="3.98"/><circle class="cls-2" cx="81.1" cy="28.02" r="3.98"/><circle class="cls-2" cx="89.34" cy="20.91" r="3.98"/><circle class="cls-2" cx="86.6" cy="14.66" r="3.98"/><circle class="cls-2" cx="92.04" cy="10.68" r="3.98"/><circle class="cls-2" cx="97.29" cy="5.85" r="3.98"/><circle class="cls-2" cx="106.11" cy="5.85" r="3.98"/><circle class="cls-2" cx="113.42" cy="3.98" r="3.98"/><circle class="cls-2" cx="111" cy="10.68" r="3.98"/><circle class="cls-2" cx="108.64" cy="15.51" r="3.98"/><circle class="cls-2" cx="109.44" cy="23.25" r="3.98"/><path class="cls-1" d="M103.59,43.61l-.99-1.39c-.98-1.38-2.47-3.48-5.5-5.23-3.26-1.88-6.6-2.39-7.89-2.52l.2-1.99c1.41.14,5.09.71,8.69,2.78,3.41,1.97,5.11,4.37,6.13,5.8l-.64,2.55Z"/><line class="cls-1" x1="98.33" y1="25.32" x2="105.06" y2="37.39"/><rect class="cls-1" x="101.13" y="24.94" width="2" height="13.82" transform="translate(-2.59 53.72) rotate(-29.12)"/><path class="cls-1" d="M107.97,41.5l-1.58-1.23c9.24-11.88,17.98-11.5,18.35-11.48l-.12,2,.06-1-.05,1c-.09,0-8.12-.27-16.65,10.71Z"/><circle class="cls-2" cx="114.51" cy="17.79" r="3.98"/><circle class="cls-2" cx="118.95" cy="14.66" r="3.98"/><circle class="cls-2" cx="124.92" cy="10.68" r="3.98"/><circle class="cls-2" cx="121.94" cy="17.79" r="3.98"/><circle class="cls-2" cx="121.94" cy="24.89" r="3.98"/><circle class="cls-2" cx="118.1" cy="23.89" r="3.98"/><circle class="cls-2" cx="126.76" cy="23.25" r="3.98"/><circle class="cls-2" cx="123.78" cy="29.7" r="3.98"/><circle class="cls-2" cx="128.9" cy="18.64" r="3.98"/><circle class="cls-2" cx="135.01" cy="24.04" r="3.98"/><circle class="cls-2" cx="131.6" cy="30.35" r="3.98"/><circle class="cls-2" cx="98.33" cy="13.12" r="3.98"/><circle class="cls-2" cx="102.13" cy="10.68" r="3.98"/><circle class="cls-2" cx="86.07" cy="27.87" r="3.98"/><circle class="cls-2" cx="88.06" cy="33.41" r="3.98"/><circle class="cls-2" cx="93.31" cy="27.23" r="3.98"/><circle class="cls-2" cx="100.7" cy="24.04" r="3.98"/><circle class="cls-2" cx="103.04" cy="20.06" r="3.98"/><circle class="cls-2" cx="94.55" cy="20.06" r="3.98"/></g></svg>