<?xml version="1.0" encoding="UTF-8"?><svg id="_Слой_2" xmlns="http://www.w3.org/2000/svg" width="703" height="252" viewBox="0 0 703 252"><defs><style>.cls-1{fill:#fff;stroke-width:0px;}</style></defs><g id="_Слой_1-2"><path class="cls-1" d="m0,36.38h32.03v9.7l2.18-1.21c5.82-4.04,12.09-7.03,18.81-8.97,6.71-1.94,13.63-2.91,20.75-2.91,10.03,0,19.54,1.94,28.51,5.82s16.82,9.14,23.54,15.76c6.71,6.63,12.01,14.43,15.89,23.41s5.82,18.55,5.82,28.74-1.94,19.77-5.82,28.74c-3.88,8.97-9.18,16.78-15.89,23.41-6.71,6.63-14.52,11.88-23.42,15.76-8.9,3.88-18.44,5.82-28.64,5.82-7.12,0-13.87-.97-20.26-2.91-6.39-1.94-12.42-4.61-18.08-8l-3.4-2.18v66.94L0,252V36.38Zm73.77,28.62c-5.66,0-11,1.09-16.02,3.27-5.02,2.18-9.43,5.18-13.23,8.97-3.8,3.8-6.84,8.25-9.1,13.34-2.27,5.09-3.4,10.47-3.4,16.13,0,5.98,1.09,11.52,3.28,16.61,2.18,5.09,5.18,9.54,8.98,13.34,3.8,3.8,8.25,6.75,13.35,8.85,5.1,2.1,10.47,3.15,16.14,3.15,6.47,0,12.29-1.25,17.47-3.76,5.18-2.5,9.54-5.78,13.1-9.82,3.56-4.04,6.31-8.53,8.25-13.46,1.94-4.93,2.91-9.9,2.91-14.92,0-5.49-1.05-10.75-3.15-15.76-2.1-5.01-4.97-9.46-8.61-13.34s-8.01-6.95-13.1-9.22c-5.1-2.26-10.72-3.4-16.87-3.4Z"/><path class="cls-1" d="m164.53,180.45V18.19L196.32,0v180.45h-31.79Z"/><path class="cls-1" d="m357.94,180.45h-31.3v-9.46l-2.18,1.21c-5.66,3.72-11.81,6.55-18.44,8.49-6.64,1.94-13.35,2.91-20.14,2.91-10.19,0-19.74-1.94-28.63-5.82-8.9-3.88-16.58-9.13-23.05-15.76-6.47-6.63-11.57-14.31-15.29-23.04-3.72-8.73-5.58-17.95-5.58-27.65s1.9-19.2,5.7-28.01c3.8-8.81,8.98-16.49,15.53-23.04s14.23-11.76,23.05-15.64c8.82-3.88,18.16-5.74,28.03-5.58,9.06.33,16.54,1.42,22.45,3.27,5.9,1.86,11.53,4.65,16.87,8.37l1.7,1.21.24-2.18h31.06v130.73Zm-31.3-69.12c0-6.31-1.18-12.01-3.52-17.1-2.35-5.09-5.46-9.38-9.34-12.86-3.88-3.48-8.25-6.18-13.1-8.13-4.85-1.94-9.87-2.91-15.05-2.91-5.5,0-10.72,1.09-15.65,3.27-4.94,2.18-9.3,5.13-13.1,8.85-3.8,3.72-6.79,8.05-8.98,12.98-2.18,4.93-3.28,10.23-3.28,15.89,0,6.31,1.17,12.01,3.52,17.1,2.34,5.09,5.46,9.38,9.34,12.85,3.88,3.48,8.29,6.19,13.23,8.13,4.93,1.94,9.91,2.91,14.92,2.91,6.31,0,12.01-1.17,17.11-3.52,5.1-2.34,9.38-5.46,12.86-9.34,3.48-3.88,6.19-8.28,8.13-13.22,1.94-4.93,2.91-9.9,2.91-14.92Z"/><path class="cls-1" d="m406.47,180.45v-109.63h-38.83v-35.41h108.96v35.41h-38.34v90.47l-31.79,19.16Z"/><path class="cls-1" d="m556.43,35.41c10.03,0,19.45,1.9,28.27,5.7,8.82,3.8,16.5,8.97,23.05,15.52,6.55,6.55,11.73,14.23,15.53,23.04,3.8,8.81,5.7,18.23,5.7,28.26s-1.9,19.44-5.7,28.26c-3.8,8.81-8.98,16.49-15.53,23.04-6.55,6.55-14.24,11.73-23.05,15.52-8.82,3.8-18.24,5.7-28.27,5.7s-19.45-1.9-28.27-5.7c-8.82-3.8-16.5-8.97-23.05-15.52-6.55-6.55-11.73-14.23-15.53-23.04-3.8-8.81-5.7-18.23-5.7-28.26s1.9-19.44,5.7-28.26c3.8-8.81,8.98-16.49,15.53-23.04,6.55-6.55,14.23-11.72,23.05-15.52,8.82-3.8,18.24-5.7,28.27-5.7Zm41.25,72.76c0-5.66-1.13-10.99-3.4-16.01-2.27-5.01-5.3-9.38-9.1-13.1-3.8-3.72-8.17-6.67-13.1-8.85-4.94-2.18-10.07-3.27-15.41-3.27-7.44,0-13.83,1.5-19.17,4.49-5.34,2.99-9.71,6.63-13.1,10.91-3.4,4.29-5.79,8.77-7.16,13.46-1.38,4.69-1.98,8.73-1.82,12.13-.33,3.4.2,7.44,1.58,12.13,1.37,4.69,3.68,9.18,6.92,13.46,3.23,4.29,7.56,7.97,12.98,11.04,5.42,3.07,11.93,4.61,19.53,4.61,6.15,0,11.73-1.13,16.74-3.4,5.01-2.26,9.34-5.29,12.98-9.1,3.64-3.8,6.47-8.16,8.49-13.1,2.02-4.93,3.03-10.07,3.03-15.4Z"/><path class="cls-1" d="m637.98,43.49c0-4.52.87-8.74,2.62-12.65,1.75-3.92,4.11-7.32,7.1-10.21s6.45-5.17,10.4-6.82c3.95-1.66,8.09-2.49,12.43-2.49s8.57.84,12.52,2.53c3.95,1.69,7.4,3.99,10.35,6.91,2.95,2.92,5.29,6.33,7.01,10.21,1.72,3.89,2.58,8.06,2.58,12.52s-.84,8.56-2.53,12.47c-1.69,3.92-4.01,7.32-6.96,10.21-2.95,2.89-6.41,5.18-10.35,6.87-3.95,1.69-8.15,2.53-12.61,2.53s-8.77-.86-12.75-2.58c-3.98-1.72-7.43-4.04-10.35-6.96-2.92-2.92-5.23-6.33-6.92-10.21-1.69-3.89-2.53-8-2.53-12.34Zm57.78,0c0-3.37-.66-6.57-1.99-9.58-1.33-3.01-3.12-5.66-5.38-7.95-2.26-2.29-4.93-4.1-8-5.42-3.07-1.32-6.36-1.99-9.86-1.99s-6.78.65-9.86,1.94c-3.07,1.3-5.76,3.07-8.05,5.33-2.29,2.26-4.1,4.9-5.43,7.91-1.33,3.01-1.99,6.27-1.99,9.76s.68,6.76,2.03,9.81c1.36,3.04,3.18,5.68,5.47,7.91,2.29,2.23,4.97,3.98,8.05,5.24,3.07,1.27,6.33,1.9,9.77,1.9s6.69-.65,9.77-1.94c3.07-1.3,5.76-3.07,8.05-5.33,2.29-2.26,4.1-4.9,5.43-7.91,1.32-3.01,1.99-6.24,1.99-9.67Zm-40.6-18.71h16.91c1.75,0,3.38.32,4.88.95,1.51.63,2.82,1.52,3.93,2.67,1.11,1.15,1.99,2.46,2.62,3.93.63,1.48.95,3.09.95,4.84,0,.96-.14,2.02-.41,3.16-.27,1.15-.69,2.23-1.27,3.25-.57,1.03-1.3,1.96-2.17,2.8-.88.84-1.91,1.48-3.12,1.9l-.9.36,9.95,13.38h-8.5l-9.4-12.47h-6.6v12.56h-6.87V24.78Zm17,17.9c1.57-.12,2.86-.65,3.89-1.58,1.02-.93,1.54-2.24,1.54-3.93,0-1.51-.48-2.8-1.45-3.89-.97-1.08-2.32-1.63-4.07-1.63h-10.04v11.03h10.13Z"/></g></svg>